<svg xmlns="http://www.w3.org/2000/svg" width="142.96" height="32.102" viewBox="0 0 142.96 32.102">
  <g id="AzulikTulum" transform="translate(-107.13 -130.33)">
    <g id="Group_39" data-name="Group 39" transform="translate(107.13 130.33)">
      <path id="Path_276" data-name="Path 276" d="M456.692,130.922q0,.037-2.4.056-.949,0-1.549-.038c-.405-.013-.658-.02-.756-.02s-.133.045-.12.133v.495c0,.115.033.171.1.171h.581a.906.906,0,0,1,.608.209.78.78,0,0,1,.166.438c0,.115-.007.257-.018.428a2.411,2.411,0,0,1-.166.638q-.59,1.676-1.246,3.476-.628,1.771-1.725,4.447H450.1q-.72-2.21-1.438-4.351-.812-2.4-1.264-4.152c-.259-1.933-1.456-1.875-1.456-1.875q-3.089-.037-3.071-.056a.12.12,0,0,0-.138.133v.467c0,.133.033.2.1.2h.488a.853.853,0,0,1,.812.648q.092.209.3.752.2.57.452,1.3.508,1.515.94,2.667,1.345,3.647,2.951,7.609a2.06,2.06,0,0,0,.184.334.256.256,0,0,0,.249.153.482.482,0,0,0,.433-.334q.147-.277.563-1.171.379-.914.867-2.086,1.041-2.533,1.495-3.59.553-1.285,1.153-2.762c.3-.762.593-1.435.885-2.024l.51-.86c.047-.06.091-.116.136-.164q.212-.189.379-.314a1.771,1.771,0,0,1,.628-.153h.433a.116.116,0,0,0,.13-.133v-.495C456.821,130.98,456.778,130.922,456.692,130.922Z" transform="translate(-386.997 -130.822)" fill="#fff"/>
      <path id="Path_277" data-name="Path 277" d="M907.264,143.5l.01-.007-.938-1.3-1.036-1.463a.316.316,0,0,0-.065-.068l-1.976-2.745,4.016-5.633-.01-.007.563-.8a.351.351,0,0,0-.286-.553h-1.687a.151.151,0,0,0-.027,0c-.2-.015-.375.792-.375.993a2.032,2.032,0,0,1-.038.342l-3.079,4.32-2.154-2.939-.053.038q.01-.77.017-1.393a.523.523,0,0,1,.621-.561h.448c.086,0,.128-.045.128-.133v-.513a.134.134,0,0,0-.149-.153q-.214.037-2.549.056-2.372-.037-2.521-.056-.15,0-.15.115v.551c0,.09.048.133.148.133h.47a.438.438,0,0,1,.571.467q.037,2.028.055,4.276v6.515a3.871,3.871,0,0,1-.055.714c-.012.223-.184.34-.515.352h-.58c-.093,0-.138.038-.138.115v.551c0,.088.047.133.14.133q.075-.037,2.539-.056,2.446.02,2.587.056a.121.121,0,0,0,.111-.133v-.551c0-.076-.048-.115-.146-.115h-.585c-.251,0-.394-.143-.43-.428q-.055-1.539-.055-4.109v-2.051l4.823,6.7a2.08,2.08,0,0,1,.037.334.352.352,0,0,0,.375.349l.027,0h2.19a.349.349,0,0,0,.311-.189.354.354,0,0,0-.025-.364Z" transform="translate(-764.933 -130.83)" fill="#fff"/>
      <path id="Path_278" data-name="Path 278" d="M292.323,140.646a.2.2,0,0,0-.239.056q-.286.354-1.207,1.305c-.289.306-.56.571-.81.8a4.123,4.123,0,0,1-.646.495,3.53,3.53,0,0,1-1.427.209H283.3q.82-1.133,4.638-6.477,1.714-2.419,2.976-4.228,1.243-1.818,1.355-1.971a.256.256,0,0,0,.055-.334.367.367,0,0,0-.322-.133q-.294,0-1.373.058-1.1.057-2.881.056-1.285,0-2.885-.02t-2.4-.1a2.914,2.914,0,0,0-.447-.038.326.326,0,0,0-.276.2l-1.229,3.481c-.013.09.007.146.056.171l.334.181c.088.025.168-.015.237-.125q.409-.506,1.267-1.456c.272-.3.518-.565.734-.8a3,3,0,0,1,.495-.428,2.77,2.77,0,0,1,.638-.334,3.177,3.177,0,0,1,.447-.038h4.057q-.092.152-1.28,1.867t-2.793,4.019q-3.53,5.094-4.59,6.676a.884.884,0,0,0-.091.39c0,.076.043.121.13.133a1.392,1.392,0,0,0,.231.018h4.414q3.363,0,5.743.219a3.8,3.8,0,0,0,.47.056.308.308,0,0,0,.249-.2c.111-.244.266-.6.458-1.071l.35-.855c.125-.3.246-.576.362-.827a4.132,4.132,0,0,1,.257-.619c.051-.09.038-.149-.037-.181Z" transform="translate(-251.308 -130.33)" fill="#fff"/>
      <path id="Path_279" data-name="Path 279" d="M775.051,144.053h-.915q-.583,0-.619-.666-.055-1.943-.075-4.228v-2.181h0q.037-2.4.055-4.743,0-.506.757-.5h.545c.1,0,.148-.045.148-.133V131.1c0-.115-.043-.171-.13-.171q-.147.037-2.795.056c-.923,0-1.626-.013-2.112-.038q-.757-.02-.932-.02-.13,0-.13.115v.571c0,.076.05.115.148.115h.915q.583,0,.62.666.055,1.883.073,4.094c-.025,1.619-.043,5.507-.055,7.06q0,.506-.757.5h-.545c-.1,0-.148.045-.148.133v.495c0,.115.043.171.13.171q.147-.037,2.795-.056c.923,0,1.626.013,2.112.038.5.013.815.018.932.018q.13,0,.13-.115v-.571C775.2,144.091,775.151,144.053,775.051,144.053Z" transform="translate(-658.957 -130.83)" fill="#fff"/>
      <path id="Path_280" data-name="Path 280" d="M620,143.307c.033-.154.075-.312.126-.478.048-.223.093-.438.13-.648q.359-1.5.433-1.77c.025-.108.013-.168-.037-.181l-.379-.153c-.1-.051-.176-.013-.231.115a9.666,9.666,0,0,1-1,1.79,5.987,5.987,0,0,1-.774.905,1.571,1.571,0,0,1-.812.467q-1.475.115-2.758.095h-1.079q-.037-.82-.036-2.848-.018-2.01-.018-2.476v-1.677q.037-3.124.055-4.562a.881.881,0,0,1,.111-.571.746.746,0,0,1,.553-.153h.885c.13,0,.194-.051.194-.153v-.457c.013-.126-.047-.191-.176-.191q-.055.037-3.174.056c-.842,0-1.461-.013-1.855-.038s-.653-.018-.757-.018-.141.045-.13.133v.467q-.02.2.13.2h.7a.567.567,0,0,1,.452.153,1.291,1.291,0,0,1,.12.553q.037,1.106.055,3.629v1.086q-.037,3.829-.055,6.419a.5.5,0,0,1-.138.314.912.912,0,0,1-.673.171h-.59c-.1,0-.141.048-.13.143v.485c-.013.115.036.171.148.171q.194-.037,2.795-.056H616.4q2.546.017,3.267.051l.781.507a.112.112,0,0,0,.154-.033l.422-.649a.115.115,0,0,0-.033-.156Z" transform="translate(-525.777 -130.355)" fill="#fff"/>
      <path id="Path_281" data-name="Path 281" d="M121.033,140.245a.131.131,0,0,0-.146-.06l-.231.09-1.828.706q-.374-1.086-.7-1.965-1.345-3.647-2.951-7.609a2.06,2.06,0,0,0-.184-.334.258.258,0,0,0-.249-.153.482.482,0,0,0-.433.334q-.147.277-.563,1.171-.379.914-.867,2.086-1.041,2.533-1.495,3.59-.553,1.285-1.153,2.762c-.3.762-.593,1.435-.885,2.024l-.51.86c-.046.06-.091.116-.136.164a4.792,4.792,0,0,1-.379.314,1.771,1.771,0,0,1-.628.153h-.433a.116.116,0,0,0-.13.133v.495c0,.115.043.171.13.171q0-.037,2.4-.056.949,0,1.549.038c.405.013.658.018.756.018s.133-.045.12-.133v-.495c0-.115-.033-.171-.1-.171H111.4a.9.9,0,0,1-.608-.209.784.784,0,0,1-.166-.438c0-.115.007-.257.018-.428a2.411,2.411,0,0,1,.166-.638q.59-1.676,1.246-3.476.628-1.771,1.725-4.447h.073q.72,2.21,1.438,4.351.812,2.4,1.264,4.152c.259,1.931,1.456,1.875,1.456,1.875q3.089.037,3.071.056c.093,0,.138-.045.138-.133v-.467c0-.133-.033-.2-.1-.2h-.488a.853.853,0,0,1-.812-.648q-.092-.209-.3-.752c-.126-.354-.226-.639-.374-1.069l2.283-.9a.081.081,0,0,0,.025-.126Zm-1.915,1.594Z" transform="translate(-107.13 -130.822)" fill="#fff"/>
    </g>
    <g id="Group_40" data-name="Group 40" transform="translate(140.751 156.546)">
      <path id="Path_282" data-name="Path 282" d="M314.074,289.12c-.1-.4-.2-.523-1.415-.551h-.02v4.872c0,.083.065.12.322.146l.551.047.028.322h-2.675l.028-.322.551-.047c.247-.027.322-.083.322-.166v-4.853h-.018c-1.149,0-1.334.055-1.451.46l-.257.983h-.46l.156-1.8h4.992v1.8h-.442Z" transform="translate(-309.58 -288.207)" fill="#fff"/>
      <path id="Path_283" data-name="Path 283" d="M417.013,288.589c-.367.073-.414.166-.414,1.838v1.636a1.957,1.957,0,0,1-2.215,2.013c-1.37,0-2.2-.663-2.2-2.059v-3.31c0-.083-.055-.11-.322-.148l-.377-.047-.028-.322h2.327l-.028.322-.377.047c-.249.028-.322.083-.322.166v3.089c0,1.305.689,1.747,1.646,1.747a1.434,1.434,0,0,0,1.526-1.591v-1.544c0-1.682-.027-1.765-.405-1.838l-.442-.073-.028-.322h2.114l-.027.322Z" transform="translate(-394.541 -288.19)" fill="#fff"/>
      <path id="Path_284" data-name="Path 284" d="M517.68,293.948l.027-.322.377-.047c.249-.027.322-.083.322-.166v-4.7c0-.083-.055-.11-.322-.148l-.377-.047-.027-.322h2.408l-.028.322-.46.047c-.249.028-.322.083-.322.166v4.853h.286c1.654,0,1.81-.055,1.94-.46l.266-1.021h.478l-.2,1.838H517.68Z" transform="translate(-483.121 -288.198)" fill="#fff"/>
      <path id="Path_285" data-name="Path 285" d="M621.133,288.589c-.367.073-.414.166-.414,1.838v1.636a1.957,1.957,0,0,1-2.215,2.013c-1.37,0-2.2-.663-2.2-2.059v-3.31c0-.083-.055-.11-.322-.148l-.377-.047-.028-.322h2.327l-.028.322-.377.047c-.249.028-.322.083-.322.166v3.089c0,1.305.689,1.747,1.646,1.747a1.434,1.434,0,0,0,1.526-1.591v-1.544c0-1.682-.027-1.765-.405-1.838l-.442-.073-.028-.322h2.114l-.027.322Z" transform="translate(-564.762 -288.19)" fill="#fff"/>
      <path id="Path_286" data-name="Path 286" d="M725.512,293.634l.515-.063c.184-.028.231-.4.184-1.812l-.11-2.969h-.065l-1.784,4.982h-.442l-1.737-4.78h-.11l-.12,2.73c-.073,1.682-.065,1.82.11,1.848l.523.063.027.322H720.51l.028-.322.515-.063c.184-.028.276-.166.377-1.848l.12-2.262c.027-.523-.083-.754-.367-.827l-.551-.1-.027-.322h2.1l1.554,4.3h.047l1.508-4.3h2.031l-.028.322-.624.055a.257.257,0,0,0-.221.267l.111,2.9c.047,1.508.12,1.784.3,1.812l.515.063.027.322h-2.436Z" transform="translate(-652.266 -288.207)" fill="#fff"/>
    </g>
  </g>
</svg>
