<svg xmlns="http://www.w3.org/2000/svg" width="66.667" height="57.5" viewBox="0 0 66.667 57.5">
  <g id="icon-azulik" transform="translate(111.015 95.75)">
    <path id="Path_31" data-name="Path 31" d="M64.834,53.649c-.085-.155-.165-.313-.245-.47s-.157-.308-.24-.46a4.008,4.008,0,0,1-.18-.39,2.474,2.474,0,0,0-.241-.478c-.082-.117-.171-.228-.259-.34a5.062,5.062,0,0,1-.482-.684,5.486,5.486,0,0,1-.273-.6,4.69,4.69,0,0,0-.262-.574.388.388,0,0,1-.043-.122l-.091-.241c-.076-.2-.155-.414-.245-.61a.671.671,0,0,0-.1-.132,1.3,1.3,0,0,1-.15-.2c-.155-.261-.291-.522-.4-.743-.062-.121-.12-.243-.178-.366-.077-.163-.146-.309-.221-.452a1.9,1.9,0,0,0-.117-.185,2.233,2.233,0,0,1-.147-.232c-.092-.174-.18-.35-.268-.525l-.012-.023c-.153-.305-.309-.618-.48-.912-.221-.381-.424-.776-.62-1.157L59.55,43.7q-.092-.179-.185-.359c-.1-.192-.218-.383-.333-.567l-.051-.083c-.072-.117-.147-.232-.222-.347-.144-.221-.288-.443-.415-.676-.16-.3-.31-.61-.442-.886-.08-.167-.156-.327-.235-.485l-.156-.316c-.186-.375-.377-.762-.578-1.133-.389-.72-.76-1.381-1.133-2.021-.28-.48-.577-.957-.885-1.417-.161-.241-.346-.485-.508-.7-.1-.133-.195-.258-.287-.385s-.171-.228-.259-.34a5.214,5.214,0,0,1-.715-1.1l-.02-.022-.027-.033a6.645,6.645,0,0,1-.548-.807l-.088-.154a12.745,12.745,0,0,0-.722-1.169,6.788,6.788,0,0,1-.474-.8c-.083-.158-.166-.314-.256-.465a2.353,2.353,0,0,1-.371-1.039.134.134,0,0,0-.015-.051,1.44,1.44,0,0,1-.466-.932.462.462,0,0,0-.031-.106,1.235,1.235,0,0,1-.542-.925c-.014-.1-.041-.109-.055-.115a.866.866,0,0,1-.451-.5,10.485,10.485,0,0,0-.923-1.834l-.084-.125a6.329,6.329,0,0,1-.682-1.193.282.282,0,0,1-.033-.043l-.273-.426q-.372-.58-.741-1.162c-.085-.135-.167-.272-.248-.409-.116-.195-.233-.392-.356-.575-.188-.278-.391-.557-.587-.826-.1-.132-.186-.256-.275-.38a.407.407,0,0,1-.038-.066c-.089-.147-.175-.3-.261-.448a6.366,6.366,0,0,0-.727-1.1,1.627,1.627,0,0,1-.238-.391,11.719,11.719,0,0,0-1.2-1.935,3.26,3.26,0,0,1-.609-1.195.71.71,0,0,0-.092-.246A5.277,5.277,0,0,1,41,12.318c-.231-.461-.47-.918-.709-1.375-.129-.247-.258-.493-.385-.74q-.139-.269-.276-.539l-.027-.054C39.446,9.3,39.294,9,39.138,8.7c-.1-.2-.212-.39-.32-.583L38.807,8.1c-.184-.329-.374-.669-.54-1.017-.25-.524-.486-1.056-.713-1.571-.134-.3-.268-.606-.4-.908-.037-.08-.081-.157-.125-.234A2.718,2.718,0,0,1,36.839,4a4.839,4.839,0,0,0-.5-.9c-.07-.107-.139-.212-.205-.319-.1-.162-.214-.322-.323-.477-.122-.173-.247-.349-.359-.532a1.034,1.034,0,0,0-.374-.4.669.669,0,0,1-.359-.593.358.358,0,0,0-.206-.328A1.365,1.365,0,0,1,34.183.2a.746.746,0,0,0-.441-.164C33.678.025,33.614.014,33.551,0L33.54.008l-.152.136a3.927,3.927,0,0,0-.475.469c-.387.486-.76,1-1.12,1.5l-.051.071a4.227,4.227,0,0,0-.427.675,1.964,1.964,0,0,1-.451.642,7.106,7.106,0,0,0-.99,1.192c-.3.428-.586.861-.874,1.295q-.235.352-.47.7c-.185.274-.351.52-.529.761-.119.161-.241.319-.363.477-.153.2-.3.387-.438.579-.349.484-.681.97-.992,1.426a5.937,5.937,0,0,0-.331.543c-.192.36-.381.721-.57,1.082l-.346.66a1.817,1.817,0,0,1-.1.158c-.019.029-.032.048-.044.068-.1.159-.2.317-.3.475l-.012.018c-.228.357-.464.726-.665,1.1l-.205.383c-.46.858-.932,1.74-1.451,2.582-.068.109-.132.219-.2.329l-.655,1.1q-.687,1.153-1.379,2.3c-.127.21-.262.416-.4.623-.146.223-.3.454-.433.685-.222.375-.438.754-.654,1.133l-.011.019c-.253.442-.514.9-.781,1.344-.4.669-.822,1.336-1.227,1.98l-.413.658c-.086.138-.177.274-.267.41-.171.258-.339.512-.477.77-.326.607-.694,1.2-1.049,1.763-.192.308-.385.617-.572.929-.235.392-.463.812-.664,1.182l-.155.284c-.056.1-.107.2-.158.307-.083.166-.164.33-.26.489-.161.263-.337.531-.492.766-.1.156-.2.3-.292.447-.062.1-.12.194-.178.292s-.1.168-.148.246a.6.6,0,0,1-.188.209.9.9,0,0,0-.345.657,1.311,1.311,0,0,1-.247.512l-.094.131a7.744,7.744,0,0,0-.464.693c-.15.263-.292.544-.418.792l-.01.02c-.095.186-.19.373-.289.557-.159.3-.322.591-.484.885-.207.375-.407.738-.6,1.1-.116.219-.225.45-.33.673-.065.139-.131.278-.2.416s-.141.313-.205.469a4.226,4.226,0,0,1-.513.988,1.447,1.447,0,0,0-.18.3,15.629,15.629,0,0,1-1.1,2.008c-.154.251-.305.5-.451.747-.24.411-.5.812-.782,1.256-.117.18-.242.354-.363.523l-.136.19c-.033.047-.069.092-.1.138a1.733,1.733,0,0,0-.153.218c-.163.3-.321.593-.48.891l-.028.052q-.158.3-.317.592-.175.323-.354.644l-.019.034c-.224.4-.455.822-.671,1.242-.268.521-.515,1.063-.754,1.587l-.023.052c-.054.119-.113.237-.172.355a3.5,3.5,0,0,0-.365.94.785.785,0,0,1-.156.33,2.128,2.128,0,0,0-.263.558l-.037.1a.4.4,0,0,0,.074.437l.073.076a2.179,2.179,0,0,0,.567.135,1.835,1.835,0,0,1,.79.226c.059-.007.118-.016.176-.024a2.578,2.578,0,0,1,.587-.04,3.59,3.59,0,0,0,.758-.048,5.61,5.61,0,0,1,.592-.057,6.7,6.7,0,0,0,.976-.126c.139-.025.278-.05.418-.071a3.835,3.835,0,0,1,1.228.034l1.415-.056.015,0a.385.385,0,0,0,.276-.059.91.91,0,0,1,.436-.108c.21.011.419.03.628.049s.392.035.587.046c.465.026.883.047,1.305.038.058,0,.115,0,.172-.008a1.7,1.7,0,0,1,.713.064.544.544,0,0,0,.216.006,13.261,13.261,0,0,1,1.975-.059,5.6,5.6,0,0,0,.588-.018c.121-.008.242-.016.363-.019.38-.012.761-.018,1.141-.023a2.081,2.081,0,0,1,.343.027c.133.02.265.041.4.063.184.03.368.059.553.085a1.881,1.881,0,0,0,.2.013c.083,0,.158,0,.233.013.3.032.606.071.911.113.215.03.44.042.657.054a5.475,5.475,0,0,1,1.106.138.455.455,0,0,0,.075.006l.075,0L22.5,57l.174.017c.126.013.244.026.359.026l.2,0c.842.007,1.712.014,2.569.007a16.683,16.683,0,0,1,2.6.191,9.1,9.1,0,0,0,1.078.071c.156,0,.312.008.468.016s.295.009.479.007c.092,0,.183-.009.275-.018.364-.035.721-.069,1.078-.105l2.526-.119a2.792,2.792,0,0,1,.378.027,2.223,2.223,0,0,0,.292.024c.131,0,.262-.013.4-.026.112-.011.224-.021.336-.026a.715.715,0,0,1,.37.092.126.126,0,0,0,.128.016.748.748,0,0,1,.289-.045c.1,0,.206.009.31.016a4.819,4.819,0,0,0,.528.014c.12-.006.238-.019.357-.031a3.845,3.845,0,0,1,.8-.026,1.488,1.488,0,0,0,.406-.042c.1-.019.2-.038.31-.048.058-.005.116-.012.174-.02a1.851,1.851,0,0,1,.674,0,1.618,1.618,0,0,0,.576,0,2.448,2.448,0,0,1,.57-.024.87.87,0,0,1,.482-.037c.044.006.08.011.117.013.134.007.268.005.4,0,.092,0,.184,0,.277,0h.177a3.021,3.021,0,0,1,1.114.144.524.524,0,0,0,.095.008l.081,0a4.279,4.279,0,0,0,.44,0,2.569,2.569,0,0,1,.979.1,1.527,1.527,0,0,1,.682.027,1.325,1.325,0,0,0,.4.042.254.254,0,0,1,.159.035.625.625,0,0,0,.469,0c.056-.013.112-.025.167-.035l.174-.033a2.2,2.2,0,0,1,.985-.039,2.092,2.092,0,0,1,.984-.131c.08,0,.157.006.241.005.221,0,.435.007.642.015h.03c.154.006.308.012.462.014h1.975a.247.247,0,0,1,.076.012.4.4,0,0,0,.214-.021,1.592,1.592,0,0,1,.189-.038c.041,0,.083-.011.126-.018a1.155,1.155,0,0,1,.623.018.331.331,0,0,0,.3.011.709.709,0,0,1,.277-.042H54.6c.054,0,.108,0,.162,0s.112,0,.166,0l.287-.02c.188-.014.381-.028.574-.03a1.461,1.461,0,0,1,.268.026.807.807,0,0,0,.235.019,2.264,2.264,0,0,1,.919.048c.291.066.594.112.879.151a2.389,2.389,0,0,1,.31.071.78.78,0,0,0,.481.039.364.364,0,0,1,.3.036l.026.013a.794.794,0,0,1,.1.016.866.866,0,0,0,.135.02,1.979,1.979,0,0,1,1.453-.013.783.783,0,0,0,.422.006,2.532,2.532,0,0,1,.965-.118,3,3,0,0,0,.476-.018l.062-.005a.385.385,0,0,0,.064-.023.62.62,0,0,1,.378-.056c.016-.011.07-.043.09-.054a1.369,1.369,0,0,1,.17-.089,1.289,1.289,0,0,1,.21-.061l.042-.009a2.233,2.233,0,0,1,.888.014c.127.02.245.038.362.045a.461.461,0,0,1,.355.256c.033.069.068.1.2.1h0a.826.826,0,0,1,.29.063.385.385,0,0,0,.356-.024c.15-.088.3-.172.454-.256ZM33.961,7.725c.011-.068.022-.134.031-.2a9.747,9.747,0,0,0,.069-1.107l.005-.22a.581.581,0,0,1,.354-.577.375.375,0,0,0,0-.054.881.881,0,0,1,.656-.964c.682-.188.926-.1,1.3.471.165.248.317.507.464.757.065.11.127.215.189.319.03.05.06.1.089.151l.019.032c.065.111.123.21.185.307a6.8,6.8,0,0,1,.7,1.345,2,2,0,0,0,.177.333c.05.081.1.162.142.246.138.268.282.535.425.8l.013.024c.315.583.638,1.184.909,1.8l.091.209c.177.407.357.819.557,1.208.17.329.354.661.533.981s.362.649.536.986a12.956,12.956,0,0,0,.911,1.435c.1.139.193.277.289.417.195.286.383.58.564.865l.4.621c.216.334.432.668.644,1l.137.216c.177.276.359.562.516.863s.3.62.437.926c.059.132.117.263.177.392.014.029.026.059.037.089a.565.565,0,0,0,.045.1,1.443,1.443,0,0,1,.171.335c.17.272.6.961,1.058,1.714a.623.623,0,0,1,.07.065.5.5,0,0,1,.117.188c.014.047.033.091.051.137.342.564.68,1.129.922,1.552.075.1.148.2.217.305.116.173.22.351.324.533a.5.5,0,0,1-.067.612c-.195.2-.392.387-.541.527a1.185,1.185,0,0,1-.136.105.508.508,0,0,0-.089.071,1.253,1.253,0,0,1-.925.464c-.307.031-.626.051-.907.069l-.236.015-.078,0-.117,0-.121,0a.245.245,0,0,1-.047-.007l-2.576-.075c-.213,0-.425-.007-.637-.013h-.066a1.316,1.316,0,0,1-.355-.038,3.965,3.965,0,0,0-1.4-.063,6.631,6.631,0,0,1-.673.005l-.457-.009c-.349-.006-.71-.011-1.067-.04a13.287,13.287,0,0,0-1.573,0l-.447.017-.072,0a1.213,1.213,0,0,1-.283-.007,4.978,4.978,0,0,0-1.075-.022c-.21.011-.419.021-.63.019a.673.673,0,0,1-.5-.162.58.58,0,0,1-.135-.413c.016-.423.138-.919.159-1.342l.031-.644c0-.089,0-.178,0-.267,0-.142,0-.283-.006-.425,0-.359-.01-.731-.027-1.094-.022-.471-.065-.939-.108-1.374a13.257,13.257,0,0,1-.022-1.718l0-.155c.007-.23,0-.466,0-.694,0-.245-.005-.5,0-.748.011-.321.035-.646.057-.961.015-.206.029-.412.041-.619.027-.47.046-.94.065-1.41q.023-.6.044-1.2.022-.621.045-1.242c.006-.151.01-.3.013-.455.01-.4-.051-.819,0-1.224.084-.678.112-1.323.139-1.918a1.56,1.56,0,0,1,.059-.3v0c.009-.032.018-.064.026-.1l.023-.092a2.035,2.035,0,0,0,.089-.816A2.659,2.659,0,0,1,33.961,7.725ZM40.934,41a14.958,14.958,0,0,0-1.887-.936L38.931,40a.677.677,0,0,1-.152-.129c-.025-.026-.051-.053-.085-.086a.3.3,0,0,1-.083-.28h0a.3.3,0,0,1,.2-.213c.045-.014.084-.029.12-.043a.984.984,0,0,1,.236-.07.536.536,0,0,1,.088,0c.331.014,2.593-.044,2.939-.1.152-.026.308-.051.466-.072q-.215.381-.431.762c-.225.394-.433.747-.635,1.081a.437.437,0,0,1-.369.256A.566.566,0,0,1,40.934,41Zm2.276-2.974-.03.052-.134.236,0-.009a.3.3,0,0,1-.194.189l-.145.047a1.543,1.543,0,0,1-.308.083c-.3.035-.619.063-.946.083-.538.033-3.012.061-3.55.088l-.221.011-.057,0a.746.746,0,0,1-.351-.029,6.679,6.679,0,0,0-1.116-.217c-.349-.2-.661-.393-.939-.575q-.187-.11-.377-.216l-.262-.148a.791.791,0,0,1-.156-.1.443.443,0,0,1-.128-.186,7.725,7.725,0,0,1-.87-.755.5.5,0,0,1-.143-.422c.024-.241.059-.482.092-.715l.009-.065a.691.691,0,0,0-.041-.436.7.7,0,0,1-.054-.126,2.309,2.309,0,0,0-.014-.439,3.915,3.915,0,0,1,.008-.925c.009-.1.019-.2.025-.307.024-.4.026-.8.029-1.2V31.73c0-.15,0-.3-.009-.449,0-.11-.008-.21-.009-.31q-.006-.333-.01-.665c0-.186-.073-.67-.126-1.076a.52.52,0,0,1,.125-.363.6.6,0,0,1,.482-.151c.267.011.534.025.8.04.323.018.645.036.968.046.164.005.334,0,.5-.009s.325-.015.5-.011a4.194,4.194,0,0,1,.731.075,5.826,5.826,0,0,0,1.11.095c.229,0,.458.02.679.04.128.011.242.021.357.028s.24.011.359.015c.091,0,.183.006.274.011l.6.031c.433.023.874.047,1.307.059.171.005.345-.005.529-.016.124-.007.248-.014.371-.017a.937.937,0,0,1,.2.019l2.068.006c1.4-.85,2.016,2.078,2.016,2.078a.535.535,0,0,1-.029.478,4.012,4.012,0,0,1-.377.667c-.148.2-.309.393-.464.577l-.031.036-.163.195a2.118,2.118,0,0,0-.428.716,2.579,2.579,0,0,1-.39.723c-.051.074-.1.147-.149.222l-.032.051c-.268.428-.546.87-.806,1.31C43.916,36.792,43.557,37.42,43.21,38.027ZM26.776,43.254a1.211,1.211,0,0,0-.152-.2,2.15,2.15,0,0,1-.384-.6c-.032-.065-.064-.13-.1-.193a.457.457,0,0,1,.207-.685l.162-.089c.3-.165.634-.347.969-.524a.333.333,0,0,1,.178.048.209.209,0,0,1,.083.126.3.3,0,0,1-.041.21h0c-.046.066-.093.13-.141.194C27.528,41.592,26.893,43.014,26.776,43.254Zm1.654-3.378a5.033,5.033,0,0,1-.521.229,4.8,4.8,0,0,0-.445.192c-.36.186-.717.4-1.061.6l-.2.118a.752.752,0,0,1-.367.137.357.357,0,0,1-.109-.017c-.164-.051-.241-.194-.318-.361s-.138-.313-.2-.471c-.081-.194-.173-.413-.273-.613-.31-.619-.631-1.238-.942-1.836q-.2-.386-.4-.773l-.023-.044c-.043-.082-.085-.165-.12-.251a5.4,5.4,0,0,0-.506-.984,6.153,6.153,0,0,1-.668-1.243,2.849,2.849,0,0,0-.294-.528c-.033-.05-.063-.1-.095-.151h0l-.048-.08-.025-.04-.017-.03-.817-1.353a.79.79,0,0,1-.116-.15q-.34-.57-.674-1.143l-.365-.621a.444.444,0,0,1-.062-.347.419.419,0,0,1,.213-.258,1.315,1.315,0,0,1,.389-.225,5.286,5.286,0,0,1,1.346-.688,1.781,1.781,0,0,1,.192-.069l.013,0h0a1.5,1.5,0,0,1,.345-.057c.217-.01.442-.034.659-.058l.293-.03a.255.255,0,0,1,.182.054l.379,0c.424,0,.831-.006,1.238,0,.342,0,.684.01,1.027.018.259.006.518.011.778.015a1.589,1.589,0,0,0,.171-.01,2.2,2.2,0,0,1,.244-.014c.213,0,.427.01.64.018l.357.011.267.008c.235.008.5.017.75.015.165,0,.335,0,.509-.008l.192.2a.3.3,0,0,1,.263.186,1.97,1.97,0,0,0,.328.444,3.2,3.2,0,0,1,.283.352c.106.16.2.327.292.488.044.077.088.155.133.231l.128.216c.056.093.112.187.166.281.041.069.079.14.118.21.028.051.056.1.085.152s.059.1.089.152c.054.092.116.2.17.3s.113.241.163.359l.153.356c.12.279.241.558.353.836a2.6,2.6,0,0,1,.231,1.025c-.022.383-.045.727-.079,1.081v1.4l0,.006-.022.035a3.051,3.051,0,0,1-1.043.831c-.47.277-.943.549-1.416.822l-.265.152-.436.253C29.246,39.42,28.841,39.656,28.43,39.876Zm4.553-9.08c.011.53.02,1.1.016,1.667a.188.188,0,0,1-.333,0l-.224-.434c-.17-.33-.329-.637-.492-.942-.073-.135-.156-.274-.23-.4-.056-.093-.11-.184-.163-.276s-.087-.171-.124-.254l-.018-.04a5.167,5.167,0,0,0-.664-1.007l-.092-.119c-.052-.067-.108-.131-.163-.194.174-.009.349-.021.523-.034s.341-.025.51-.034c.273-.014.566-.024.923-.031h.009a.429.429,0,0,1,.47.432l.009.276C32.957,29.87,32.973,30.333,32.982,30.8ZM31.913,4.233a1.457,1.457,0,0,1,1.189-.7.672.672,0,0,1,.5.168.74.74,0,0,1,.258.507,4.046,4.046,0,0,1-.006.492l0,.037q-.038.72-.083,1.44c0,.063-.014.124-.024.186l-.011.071a.253.253,0,0,1-.224.214l-.091.008a.255.255,0,0,1-.228-.142c-.054-.112-.106-.225-.157-.338a5.961,5.961,0,0,0-.362-.71,6.168,6.168,0,0,0-.491-.642c-.083-.1-.166-.2-.248-.3A.254.254,0,0,1,31.913,4.233ZM17.94,25.365q.673-1.1,1.338-2.2c.11-.183.218-.368.325-.553l.015-.026c.151-.259.322-.553.5-.831.147-.237.3-.469.456-.7.177-.266.357-.537.521-.807.192-.315.373-.64.549-.953.123-.219.245-.438.371-.655.062-.106.13-.2.2-.3s.128-.183.182-.278c.167-.292.328-.588.491-.883l.042-.077c.108-.2.216-.393.325-.589q.313-.561.632-1.12l.322-.567.009-.014a7.144,7.144,0,0,1,.745-1.267l.02-.03c.065-.094.129-.188.192-.283a1.024,1.024,0,0,0,.08-.157,7.1,7.1,0,0,1,.8-1.326.939.939,0,0,0,.066-.113c.027-.051.05-.095.076-.136.064-.1.126-.206.188-.31a7.534,7.534,0,0,1,.525-.8,9.443,9.443,0,0,0,.819-1.265,3.277,3.277,0,0,1,.25-.369c.05-.068.1-.13.14-.193l.191-.283c.3-.438.632-.934.949-1.419.089-.136.175-.285.251-.416.095-.164.189-.327.294-.483.212-.316.431-.623.664-.948l.029-.041c.092-.129.186-.261.282-.4a.252.252,0,0,1,.347-.065c.05.034.1.064.144.092a2.7,2.7,0,0,1,.327.228,3.428,3.428,0,0,1,.291.293l.111.12a1.376,1.376,0,0,1,.438.883.586.586,0,0,0,.055.116c.023.041.045.081.064.121s.03.062.046.093a1.4,1.4,0,0,1,.114.273c.126.463.253.959.4,1.56a.909.909,0,0,1,.016.271l0,.045a1.117,1.117,0,0,1-.015.132.524.524,0,0,0-.009.074,3.967,3.967,0,0,1,.114.951c0,.047,0,.091.006.137a6.094,6.094,0,0,0-.006.619,2.543,2.543,0,0,1-.047.882,4.8,4.8,0,0,0-.035.646l0,.135q-.011.784-.019,1.568-.008.672-.016,1.345c0,.109-.013.215-.023.318l-.008.081c-.147,1.528-.177,3.09-.206,4.6-.019.946.02,1.88.064,2.749.052,1.016.078,1.8.084,2.527,0,.343.065.1.041.431-.012.159,0,.914-.013,1.073,0,.07-.028.465-.03.535-.028.368-.184.513-.554.5-.777-.024-1.569.027-2.335.077l-.385.025a3.36,3.36,0,0,1-.569,0,4.988,4.988,0,0,0-.939.021c-.206.017-.42.035-.637.038-.256,0-.512.013-.768.024-.3.013-.6.026-.908.026-.257,0-.486-.009-.7-.028-.5-.043-1.013-.039-1.513-.034-.247,0-.495,0-.742,0-.124,0-.248-.01-.373-.018l-.215-.013c-.061,0-.123-.005-.185-.007-.1,0-.178-.006-.259-.01q-.929-.051-1.857-.106a.711.711,0,0,1-.288-.074c-.246-.128-.5-.266-.762-.412a2.06,2.06,0,0,1-.616-.6l-.091-.117c-.073-.092-.135-.187-.2-.28-.049-.075-.092-.141-.14-.2A.71.71,0,0,1,17.94,25.365ZM4.4,53.715h0a1.092,1.092,0,0,1-.455.4l-.081.046a1.757,1.757,0,0,1-.316.14l-.056.02a.818.818,0,0,1-.281.066c-.173,0-.282-.119-.4-.262-.035-.043-.065-.082-.094-.123a.647.647,0,0,0-.325-.259.465.465,0,0,1-.326-.655c.072-.225.159-.445.243-.658l.042-.106A.653.653,0,0,1,2.5,52.1a.392.392,0,0,1,.319-.125.438.438,0,0,1,.306.213l.044.067c.121.183.247.371.385.54a1.512,1.512,0,0,0,.517.408.967.967,0,0,1,.2.134c.022.018.04.033.059.047A.253.253,0,0,1,4.4,53.715Zm.561-1.021a3.314,3.314,0,0,1-.641-1.4,4.08,4.08,0,0,1-.086-.54l.1-.032h0l-.1.011c-.008-.067-.015-.135-.025-.2a2.7,2.7,0,0,1,.422-1.591,9.474,9.474,0,0,0,.646-1.42,7.99,7.99,0,0,1,1.056-1.989,5.453,5.453,0,0,0,.373-.6l.086-.152c.132-.23.253-.475.371-.711A9.114,9.114,0,0,1,7.8,42.917a3.424,3.424,0,0,0,.269-.5c.057-.121.114-.242.178-.359s.15-.256.228-.382a5.116,5.116,0,0,0,.316-.56,10.083,10.083,0,0,1,.721-1.252c.137-.213.278-.432.405-.651.059-.1.109-.213.159-.32.069-.152.133-.3.2-.453l.01-.024a8.79,8.79,0,0,1,.5-1.056c.126-.213.234-.445.338-.669h0a7.289,7.289,0,0,1,.42-.811A1.078,1.078,0,0,1,11.8,35.6l.843-1.379a.254.254,0,0,1,.046-.169h0l.095-.131c.072-.1.136-.187.2-.278l.078-.119c.054-.081.111-.168.168-.257l.2-.331h0c.123-.217.232-.449.338-.673l.037-.078c.1-.208.179-.384.244-.561a4.169,4.169,0,0,1,.818-1.253,5.272,5.272,0,0,0,.631-.972c.09-.168.189-.331.284-.488.059-.1.114-.189.169-.282a.481.481,0,0,1,.64-.217c.094.037.189.071.285.106s.188.068.28.1a.454.454,0,0,1,.236.2,3.3,3.3,0,0,0,.206.322,2.353,2.353,0,0,1,.364.681.737.737,0,0,0,.107.181l.055.079c.049.074.1.146.151.218.072.1.134.189.193.279q.352.533.7,1.07c.084.13.164.262.242.39l.112.183h0l.6.87a.617.617,0,0,1,.375.366c.081.184.155.349.24.509l.029.054.14.2a5.063,5.063,0,0,1,1.112,1.691,9.038,9.038,0,0,0,.658,1.165l.077.123c.25.4.475.814.693,1.218l.157.289c.127.233.255.489.4.805.082.178.16.359.238.539.062.143.123.285.187.426.1.213.2.424.3.634l.066.138a.522.522,0,0,1-.248.8c-.137.082-.272.168-.407.254s-.275.175-.415.259c-.345.207-.7.412-1.012.588l-.35.2c-.5.287-1.009.575-1.513.851-.192.1-.39.2-.582.286-.122.057-.236.11-.348.165-.1.048-.191.1-.286.149-.142.076-.273.145-.407.208-.237.112-.475.221-.713.33-.331.152-.664.3-.991.464-.362.176-.733.374-1.133.6-.222.128-.44.262-.658.4-.257.158-.51.313-.766.458-.587.334-1.182.65-1.757.956l-.367.2c-.387.21-.787.428-1.2.605a6.515,6.515,0,0,0-1.274.793c-.171.125-.341.25-.517.369-.3.206-.609.4-.894.574-.163.1-.329.2-.5.3l-.269.159-.416.25c-.281.17-.563.34-.848.5a5.362,5.362,0,0,0-.981.8.664.664,0,0,1-.462.215H5.448A.694.694,0,0,1,4.957,52.694Zm4.47,2.633a.254.254,0,0,1-.177.153c-.041.01-.076.019-.108.028a1.019,1.019,0,0,1-.218.042l-.431.023c-.489.026-.99.054-1.486.06a1.514,1.514,0,0,1-1.091-.547l-.132-.132c-.093-.093-.187-.186-.277-.283a1.457,1.457,0,0,1-.244-.314.447.447,0,0,1-.024-.423.459.459,0,0,1,.363-.241,1.089,1.089,0,0,1,.164-.012c.309,0,.4-.072.512-.359a.847.847,0,0,1,.277-.379l.172-.126a9.3,9.3,0,0,1,1.238-.811.511.511,0,0,1,.505-.031.483.483,0,0,1,.182.465c-.01.216-.032.426-.055.624a1.247,1.247,0,0,0,.177.732,1.547,1.547,0,0,1,.164.465,1.006,1.006,0,0,0,.3.585.773.773,0,0,1,.117.16c.015.025.032.054.055.088A.254.254,0,0,1,9.428,55.327Zm21.687-.68h0a2.478,2.478,0,0,0-.563.838.772.772,0,0,1-.521.352,1.832,1.832,0,0,1-.452.056l-.531.028c-.569.032-1.156.064-1.734.085-.083,0-.165,0-.247,0-.27,0-.529-.014-.748-.028-.192-.012-.383-.031-.573-.049-.207-.02-.409-.04-.612-.051a1.031,1.031,0,0,0-.217.022,2.194,2.194,0,0,1-.218.028c-.2.012-.4.019-.6.026l-.177.006-.264.007-.206.006a.4.4,0,0,1-.184,0,2.822,2.822,0,0,0-.807-.057,3.828,3.828,0,0,1-.8-.039,1.455,1.455,0,0,0-.36,0c-.075.006-.15.011-.224.012H21c-.244,0-.486.007-.731.007-.29,0-.58-.005-.87-.009l-.208,0h-.031a.5.5,0,0,1-.274-.042,1.05,1.05,0,0,0-.471-.075c-.084,0-.168,0-.252-.011l-.11-.011a1.436,1.436,0,0,0-.606.021.613.613,0,0,1-.26.019l-.05,0L16.7,55.77c-.455-.012-.909-.024-1.363-.039-.209-.007-.418-.027-.619-.047l-.032,0-.483-.05c-.262-.028-.508-.054-.755-.075-.144-.012-.289-.02-.433-.027-.2-.01-.4-.02-.6-.042a5.056,5.056,0,0,0-1.054.009c-.074.007-.149.009-.223.011l-.069,0a.5.5,0,0,1-.529-.389.658.658,0,0,0-.14-.182,1.432,1.432,0,0,0-.255-.207,1.764,1.764,0,0,1-.692-1.048.64.64,0,0,1-.017-.08,2.186,2.186,0,0,1-.173-1.47,2.331,2.331,0,0,1,.3-.837,2.487,2.487,0,0,1,.99-.939,3.174,3.174,0,0,0,.43-.285l.039-.029a5.611,5.611,0,0,1,.935-.526c.151-.073.294-.142.434-.216.726-.389,1.68-.9,2.624-1.427.238-.132.471-.271.7-.41.271-.162.549-.328.831-.48.545-.295,1.133-.6,1.906-.976.341-.167.684-.33,1.027-.492.447-.211.9-.426,1.342-.648.237-.12.472-.264.7-.4.151-.093.3-.186.456-.274.173-.1.349-.191.525-.283.127-.067.255-.134.381-.2.09-.049.178-.1.267-.156a5.274,5.274,0,0,1,.519-.285,4.876,4.876,0,0,0,.64-.375c.147-.1.3-.194.453-.282a.484.484,0,0,1,.784.3,9.649,9.649,0,0,0,.763,1.578c.069.12.14.239.212.359.143.241.286.481.415.728s.245.5.35.721c.089.189.169.361.253.53.153.307.322.628.55,1.043a11.966,11.966,0,0,1,.625,1.355c.112.282.244.566.372.84.066.142.129.277.19.412q.117.259.233.52l.033.073c.182.41.389.875.6,1.314.046.1.088.194.13.292a2.717,2.717,0,0,0,.4.725.7.7,0,0,1,.093.145c.1.2.2.4.31.615l.1.19A.253.253,0,0,1,31.114,54.647Zm3.835-1.812a1.267,1.267,0,0,1-.195.285.672.672,0,0,1-.337.193c-.14.025-.277.04-.41.055-.078.008-.155.017-.232.027a1.035,1.035,0,0,1-.138.012.361.361,0,0,1-.232-.072l-1.051-.963h-.006a.255.255,0,0,1-.2-.1c-.033-.042-.062-.077-.088-.11a1.6,1.6,0,0,1-.145-.2c-.389-.651-.776-1.3-1.157-1.957-.13-.223-.252-.451-.375-.679-.053-.1-.106-.2-.16-.3-.008-.014-.015-.03-.023-.046A22.934,22.934,0,0,1,29,46.869c-.22-.425-.444-.856-.68-1.269-.011-.018-.02-.037-.03-.056a.4.4,0,0,0-.032-.057,20.582,20.582,0,0,1-1.244-1.851l-.033-.053s0-.008,0-.011l.061-.086c.047-.068.095-.135.146-.2l.8-1.728c.167-.21.192-.673.374-.881a1.678,1.678,0,0,1,.317-.263l.116-.081.173-.119c.175-.089.349-.178.519-.269.2-.1.394-.228.584-.347.129-.081.254-.159.38-.233.083-.049.169-.092.255-.136s.159-.08.232-.123c0,0,.2-.133.5-.305l.222-.135.242-.15.03-.021a.758.758,0,0,1,.1-.065.532.532,0,0,1,.253-.067c-.036.014-.05.023.035,0,.105.1.869-.038,1.044-.01a.421.421,0,0,0,.149,0,2.919,2.919,0,0,0,.489-.258c.048.032.095.064.142.094.141.09.284.176.427.262l.229.138.317.2q.241.149.482.3c.161.1.322.194.483.29.26.155.519.31.777.469a3.979,3.979,0,0,1,.575.4,1.616,1.616,0,0,0,.526.27c.092.035.184.069.274.109.114.051.231.1.348.142.1.038.193.075.289.115.4.168.8.338,1.2.519.192.086.372.189.547.288a.466.466,0,0,1,.209.681l-.091.207c-.135.307-.272.62-.44.917-.229.405-.483.817-.706,1.18q-.171.277-.34.555l-.027.045a1.438,1.438,0,0,0-.123.229,7.923,7.923,0,0,1-.689,1.329l-.108.181c-.122.2-.254.4-.382.594-.1.149-.192.288-.28.429a1.193,1.193,0,0,0-.087.191c-.017.045-.035.088-.053.131l-.028.066a1.619,1.619,0,0,1-.1.213.575.575,0,0,1-.08.1Zm24.693,1.8a.417.417,0,0,1-.275.287,4.256,4.256,0,0,1-.9.231c-.4.069-.81.17-1.2.267-.222.054-.421.113-.621.171l-.319.092a3.934,3.934,0,0,1-1.26.134c-.264-.012-.54,0-.807.014l-.188.009c-.213.009-.426.021-.64.033s-.439.024-.653.034h0a.615.615,0,0,1-.2-.033.306.306,0,0,0-.04-.011l-.038-.007a.556.556,0,0,0-.12-.014c-.093.006-.187.016-.28.026-.154.016-.313.032-.477.034-.337,0-.681,0-1.012-.009l-.6-.009c-.194,0-.389,0-.583-.014a3.944,3.944,0,0,1-.523-.07,2.558,2.558,0,0,0-.725-.056l-.111.011a4.266,4.266,0,0,1-.819.03,5.971,5.971,0,0,0-.956.014c-.141.009-.281.018-.422.024l-7.02.2a11.345,11.345,0,0,1-1.2.085,4.785,4.785,0,0,1-.587-.034,4.245,4.245,0,0,0-.671-.011,3.234,3.234,0,0,1-.58-.009.611.611,0,0,1-.471-.27.6.6,0,0,1-.011-.535,4.31,4.31,0,0,1,.2-.443c.03-.059.059-.118.088-.178v0a2.005,2.005,0,0,1,.425-.985l.184-.305v0a1.214,1.214,0,0,1,.062-.147l.075-.142c.107-.2.217-.414.34-.621s.262-.412.393-.608l.111-.167c.033-.049.07-.1.114-.151l.056-.07.711-1.178a.6.6,0,0,1,.079-.174l.1-.145.209-.318L39,48.732c.2-.37.375-.756.546-1.13l.012-.027c.085-.186.17-.371.258-.555s.176-.342.259-.492c.124-.224.244-.438.364-.652l.047-.084.281-.505.163-.292c.182-.327.364-.654.54-.984.081-.153.157-.317.224-.462l.011-.023c.044-.094.087-.188.133-.281a.455.455,0,0,1,.326-.275.433.433,0,0,1,.38.129,2.2,2.2,0,0,0,.49.316c.107.057.213.113.314.177l.257.162c.306.192.622.392.936.579.2.118.4.232.6.346.251.143.511.29.766.447.185.114.357.242.523.367.078.058.156.117.235.174l.144.1c.143.1.275.2.411.288.434.285.881.6,1.4,1,.292.223.6.438.9.646l.031.021c.122.084.244.169.366.254s.225.157.338.235c.032.023.065.047.1.072a.518.518,0,0,0,.106.073,2.544,2.544,0,0,1,.79.427c.1.073.2.139.293.2.139.084.274.174.41.264a6.842,6.842,0,0,0,.608.375l.1.053a4.8,4.8,0,0,1,.621.361l.935.672a.808.808,0,0,1,.068.057l.019.017a5.469,5.469,0,0,1,1.03.56c.126.081.245.157.365.229.1.062.213.115.329.172.083.041.162.079.24.121a.461.461,0,0,1,.2.225.583.583,0,0,0,.57.352,1.342,1.342,0,0,1,.948.447,1.1,1.1,0,0,0,.378.238c.142.062.281.13.425.2l.188.09a.252.252,0,0,1,.13.314c-.029.083-.037.124.1.22a1.75,1.75,0,0,1,.323.312A.4.4,0,0,1,59.642,54.629Zm.8-2.382a.235.235,0,0,1-.041,0l-.173-.028c-.136-.023-.27-.045-.4-.065-.075-.012-.151-.019-.227-.027l-.033,0a.3.3,0,0,1-.277-.1c-.039-.047-.086-.055-.239-.059a1.062,1.062,0,0,1-.349-.053c-.1-.036-.2-.064-.3-.093a3.592,3.592,0,0,1-.425-.141c-.269-.114-.531-.247-.783-.375l-.174-.088c-.377-.19-.781-.4-1.184-.609-.364-.193-.776-.412-1.174-.644-.33-.193-.654-.405-.967-.61l-.048-.032c-.126-.082-.249-.168-.372-.255s-.223-.157-.335-.231c-.147-.1-.306-.19-.459-.28l-.05-.029-.384-.222c-.176-.1-.337-.194-.5-.289l-.075-.042a1.075,1.075,0,0,1-.335-.244,1.372,1.372,0,0,0-.509-.328c-.1-.047-.207-.1-.31-.155-.376-.218-.679-.41-.953-.606-.453-.322-.933-.668-1.382-1.04a9.177,9.177,0,0,0-1.113-.749l-.215-.131c-.192-.117-.377-.244-.557-.367s-.369-.252-.553-.364c-.3-.183-.615-.363-.918-.536l-.047-.027c-.22-.126-.44-.253-.658-.382-.151-.09-.3-.191-.431-.28-.078-.053-.152-.1-.227-.153-.119-.078-.238-.156-.362-.226a.658.658,0,0,1-.366-.908c.063-.2.138-.4.21-.586l.105-.279a4.761,4.761,0,0,1,.19-.463c.083-.168.171-.334.259-.5.1-.19.2-.369.285-.552a6.112,6.112,0,0,0,.31-.762,5.766,5.766,0,0,1,1.057-1.944,2.2,2.2,0,0,0,.285-.518,4.869,4.869,0,0,1,.842-1.291,2.038,2.038,0,0,0,.258-.416c.036-.069.07-.136.107-.2l.02-.035a3.862,3.862,0,0,1,.813-1.1,1.752,1.752,0,0,0,.475-.722,3.52,3.52,0,0,1,.732-1.251,3.228,3.228,0,0,0,.467-.667l.019-.033.083-.141a3.478,3.478,0,0,1,.39-.527.449.449,0,0,1,.81.091c.039.069.072.141.1.212s.051.113.079.164c.066.121.134.242.2.362.1.178.2.356.3.538a14.389,14.389,0,0,0,.958,1.551,5.612,5.612,0,0,1,.353.609c.074.141.148.282.227.412.2.335.423.67.635.994l.153.234q.378.578.763,1.152a9.117,9.117,0,0,0,.7.951,4.994,4.994,0,0,1,.6.93c.18.333.351.671.517,1,.123.244.247.487.374.729.139.265.284.528.428.79l.012.022q.144.261.286.523c.07.13.138.262.205.393.05.1.1.2.152.293l.38.718q.245.462.489.924c.088.167.175.335.261.5l.012.023c.155.3.316.611.481.91.1.177.211.353.321.523.077.12.154.24.228.362l.08.134a9.041,9.041,0,0,1,.792,1.522c.062.168.137.338.21.5l.2.448c.126.291.268.621.417.93.113.234.24.472.351.682.091.171.182.342.269.514s.157.334.229.5l.085.193c.013.029.024.059.035.089a.443.443,0,0,0,.021.056c.2.405.165.543-.209.775-.019.012-.039.023-.06.034l-.023.012a1.678,1.678,0,0,1-1.157.43c-.08.007-.159.014-.237.025Zm2.975,2.26a.373.373,0,0,1-.274.122.564.564,0,0,1-.262-.077c-.2-.1-.383-.194-.569-.286-.208-.1-.4-.2-.592-.3-.216-.112-.431-.228-.645-.345l-.277-.15a.254.254,0,0,1-.132-.195l-.007-.063a.254.254,0,0,1,.173-.269c.045-.015.089-.032.134-.049a1.794,1.794,0,0,1,.4-.116,1.035,1.035,0,0,0,.577-.358l.023-.025c.02-.022.035-.039.052-.055a.552.552,0,0,1,.455-.22c.2.032.292.217.361.353.11.218.234.433.353.641l.015.026c.063.11.126.221.188.332l.021.038a3.088,3.088,0,0,1,.191.386A.562.562,0,0,1,63.421,54.507Z" transform="translate(-111.015 -95.749)" fill="#fff"/>
  </g>
</svg>
