<?xml version="1.0" encoding="utf-8"?>
<!-- Generator: Adobe Illustrator 27.0.0, SVG Export Plug-In . SVG Version: 6.00 Build 0)  -->
<svg version="1.1" id="Layer_1" xmlns="http://www.w3.org/2000/svg" xmlns:xlink="http://www.w3.org/1999/xlink" x="0px" y="0px"
	 viewBox="0 0 517.87 618.09" style="enable-background:new 0 0 517.87 618.09;" xml:space="preserve">
<style type="text/css">
	.st0{fill:#6F83F3;}
	.st1{fill:#FCF7F7;}
	.st2{fill:#FFFFFF;}
</style>
<g>
	<path class="st0" d="M202.66,60.44h-1.08l-0.78,1.84c-0.38,0.9-0.68,1-4.66,1h-0.48l0.7-5.2h0.38c1.72,0,1.96,0.12,1.92,0.48
		l-0.1,1.28h0.76l1.02-4.3h-0.78l-0.64,1.34c-0.22,0.42-0.5,0.44-2.04,0.44h-0.42l0.68-4.98h0.6c3.7,0,3.92,0.08,4.02,1l0.22,1.94
		h0.98l0.5-3.72h-9.8l0.06,0.7l1.02,0.22c0.36,0.08,0.44,0.24,0.4,0.48l-1.32,9.7c-0.04,0.26-0.18,0.42-0.52,0.48l-1.1,0.22
		l-0.06,0.7h9.66L202.66,60.44z"/>
	<path class="st0" d="M213.7,55.98c0.02-0.7-0.72-1.2-1.62-1.2c-0.82,0-1.4,0.5-2.92,3.92h-0.04l-1.04-3.44
		c-0.06-0.14-0.92-0.5-1.16-0.5c-0.82,0-1.54,1.24-2.06,2.3l0.3,0.36l1.04-1.4h0.46l1.48,3.72l-1.9,3.4l-0.56-0.1
		c0.08-0.72-0.26-1.16-0.9-1.16c-0.56,0-0.98,0.52-1,1.26c-0.02,0.7,0.7,1.2,1.6,1.2c0.82,0,1.1-0.22,2.92-3.94h0.1l1.06,3.44
		c0.04,0.14,0.9,0.5,1.14,0.5c0.82,0,1.54-1.24,2.08-2.3l-0.3-0.36l-1.06,1.4h-0.44l-1.52-3.8l1.86-3.28l0.58,0.08
		c-0.08,0.72,0.24,1.16,0.88,1.16C213.24,57.24,213.68,56.72,213.7,55.98z"/>
	<path class="st0" d="M222.92,62.36L222.58,62L221,63.2l-0.56-0.18c0.22-0.7,0.6-2,0.94-3.18c0.44-1.46,0.82-2.9,0.82-3.68
		c0-0.78-0.72-1.38-1.4-1.38c-0.52,0-1,0.16-1.56,0.72c-0.72,0.72-1.5,2.2-2.76,4.9h-0.18l1.3-5.6l1.12-4.68l-3.34,0.96l-0.08,0.5
		l1.26,0.56c0.14,0.06,0.16,0.22,0.12,0.46L215,61.12l-0.72,2.94l1.64,0.1l0.54-2.8c1.62-3.38,2.72-5.14,3.32-5.14
		c0.48,0,0.92,0.44,0.92,0.86c0,0.52-0.44,1.82-0.78,2.92c-0.38,1.22-1.02,3.22-1.02,3.72c0,0.32,1.04,0.64,1.46,0.64
		C221.18,64.36,222.42,63.3,222.92,62.36z"/>
	<path class="st0" d="M230.88,57.36l-0.32,1.4C228.68,62.04,228,63,227.32,63c-0.64,0-1.02-0.48-1.02-1.52
		c0-1.84,1.06-4.8,1.68-5.42c0.22-0.22,0.4-0.34,0.66-0.34C229.52,55.72,230.46,56.68,230.88,57.36z M231.04,56.16
		c-0.22-0.66-0.56-1.4-1.38-1.4c-0.96,0-1.9,0.6-2.7,1.4c-1.22,1.22-2.24,3.58-2.24,5.72c0,1.62,0.88,2.48,1.9,2.48
		c1.2,0,2.14-1.46,3.66-4.34h0.16c-0.52,1.64-1.08,3.46-1.08,3.7c0,0.32,1.08,0.64,1.5,0.64c0.82,0,2.06-1.06,2.56-2L233.08,62
		l-1.58,1.2l-0.58-0.2l1.06-4.84l1-3.38h-1.42l-0.4,1.38H231.04z"/>
	<path class="st0" d="M238.78,62.36L238.44,62l-1.58,1.2l-0.58-0.2l2.68-12.88l-3.3,0.96l-0.08,0.5l1.26,0.56
		c0.14,0.06,0.16,0.22,0.12,0.46l-2.2,11.12c-0.04,0.24,1.04,0.64,1.46,0.64C237.04,64.36,238.28,63.3,238.78,62.36z"/>
	<path class="st0" d="M241.98,59.96c0.38-2,1.04-3.46,1.52-3.94c0.14-0.14,0.34-0.24,0.7-0.24c0.4,0,1.6,0.36,1.6,0.86
		c0,1-0.62,1.68-3.78,3.32H241.98z M241.96,60.54c3.88-1.94,5.26-2.5,5.26-3.88c0-1.04-0.84-1.88-2.14-1.88
		c-2.48,0-4.7,3.36-4.7,6.46c0,1.74,1.14,3.12,2.72,3.12c1.32,0,2.18-0.76,3.24-2.02l-0.26-0.36c-1.12,0.8-1.8,1.18-2.38,1.18
		c-0.96,0-1.74-0.8-1.74-2.14V60.54z"/>
	<path class="st0" d="M258.86,56.2c-0.08,0.12-0.16,0.36-0.16,0.6c0,0.52,0.28,0.8,0.86,0.8c0.54,0,0.98-0.52,0.98-1.14
		c0-0.9-0.96-1.68-2.22-1.68c-2.66,0-4.82,3.48-4.82,6.46c0,1.74,1.14,3.12,2.72,3.12c1.32,0,2.18-0.76,3.24-2.02l-0.26-0.36
		c-1.12,0.8-1.8,1.18-2.38,1.18c-0.96,0-1.74-0.8-1.74-2.14c0-1.88,0.96-4.34,1.64-5.02c0.14-0.14,0.36-0.32,0.48-0.32
		C257.82,55.68,258.74,56.02,258.86,56.2z"/>
	<path class="st0" d="M267.5,56.08c-0.1,0.72,0.24,1.16,0.88,1.16c0.56,0,1-0.52,1-1.26c0-0.7-0.5-1.2-1.2-1.2
		c-0.56,0-0.88,0.12-1.26,0.5c-0.98,0.98-1.9,3.2-2.6,5.12h-0.3c0.32-0.96,1.28-4.48,1.28-4.98c0-0.32-1.08-0.64-1.5-0.64
		c-0.82,0-2,1.42-2.48,2.48l0.34,0.36l1.52-1.6l0.58,0.1l-1.02,5l-0.7,2.94l1.64,0.1l0.54-2.7c0.9-2,2.18-4.74,3.04-5.48
		C267.34,55.92,267.5,56.08,267.5,56.08z"/>
	<path class="st0" d="M271.52,59.96c0.38-2,1.04-3.46,1.52-3.94c0.14-0.14,0.34-0.24,0.7-0.24c0.4,0,1.6,0.36,1.6,0.86
		c0,1-0.62,1.68-3.78,3.32H271.52z M271.5,60.54c3.88-1.94,5.26-2.5,5.26-3.88c0-1.04-0.84-1.88-2.14-1.88
		c-2.48,0-4.7,3.36-4.7,6.46c0,1.74,1.14,3.12,2.72,3.12c1.32,0,2.18-0.76,3.24-2.02l-0.26-0.36c-1.12,0.8-1.8,1.18-2.38,1.18
		c-0.96,0-1.74-0.8-1.74-2.14V60.54z"/>
	<path class="st0" d="M283.94,57.36l-0.32,1.4c-1.88,3.28-2.56,4.24-3.24,4.24c-0.64,0-1.02-0.48-1.02-1.52
		c0-1.84,1.06-4.8,1.68-5.42c0.22-0.22,0.4-0.34,0.66-0.34C282.58,55.72,283.52,56.68,283.94,57.36z M284.1,56.16
		c-0.22-0.66-0.56-1.4-1.38-1.4c-0.96,0-1.9,0.6-2.7,1.4c-1.22,1.22-2.24,3.58-2.24,5.72c0,1.62,0.88,2.48,1.9,2.48
		c1.2,0,2.14-1.46,3.66-4.34h0.16c-0.52,1.64-1.08,3.46-1.08,3.7c0,0.32,1.08,0.64,1.5,0.64c0.82,0,2.06-1.06,2.56-2L286.14,62
		l-1.58,1.2l-0.58-0.2l1.06-4.84l1-3.38h-1.42l-0.4,1.38H284.1z"/>
	<path class="st0" d="M289.92,54.78c0-0.02-1.78,0.68-1.78,0.68l-0.06,0.6l1.62,0.1l-1.56,7.68c-0.06,0.26,1.04,0.52,1.46,0.52
		c0.82,0,2.06-1.06,2.56-2L291.82,62l-1.58,1.2l-0.58-0.2l1.48-6.94h2.76l-0.06-0.96h-2.52l0.56-2.76h-1.5L289.92,54.78z"/>
	<path class="st0" d="M298.62,62.36L298.28,62l-1.58,1.2l-0.58-0.2l2.06-7.58c0.08-0.3-1.12-0.64-1.54-0.64
		c-0.82,0-2,1.42-2.48,2.48l0.34,0.36l1.52-1.6l0.58,0.1l-1.98,7.6c-0.06,0.26,1.02,0.64,1.44,0.64
		C296.88,64.36,298.12,63.3,298.62,62.36z M299.3,51.72c0-0.6-0.38-1.08-1.06-1.08c-0.56,0-1.08,0.6-1.08,1.4
		c0,0.6,0.38,1.08,1.06,1.08C298.78,53.12,299.3,52.52,299.3,51.72z"/>
	<path class="st0" d="M306.02,57.96c0,0.66-0.1,1.44-0.24,2.1c-0.26,1.1-1.2,3.64-2.64,3.64c-1.04,0-1.5-1.46-1.5-2.7
		c0-0.66,0.1-1.42,0.26-2.06c0.28-1.06,1.28-3.5,2.64-3.5C305.58,55.44,306.02,56.72,306.02,57.96z M307.58,58.7
		c0-2.28-0.96-3.92-3.04-3.92c-2.46,0-4.44,2.98-4.44,5.66c0,2.28,0.96,3.92,3.04,3.92C305.6,64.36,307.58,61.38,307.58,58.7z"/>
	<path class="st0" d="M318.38,62.36L318.04,62l-1.58,1.2l-0.58-0.2c0.22-0.64,0.6-1.98,0.96-3.16c0.44-1.46,0.82-2.9,0.82-3.68
		c0-0.78-0.72-1.38-1.4-1.38c-0.52,0-1,0.16-1.56,0.72c-0.72,0.72-1.5,2.2-2.76,4.9h-0.18c0.26-0.96,1.24-4.48,1.24-4.98
		c0-0.32-1.1-0.64-1.52-0.64c-0.82,0-1.98,1.42-2.46,2.48l0.32,0.36l1.56-1.5l0.56,0.1l-1.02,4.9l-0.7,2.94l1.64,0.1l0.54-2.8
		c1.62-3.38,2.72-5.14,3.32-5.14c0.48,0,0.92,0.44,0.92,0.86c0,0.52-0.44,1.82-0.78,2.92c-0.38,1.22-1.02,3.22-1.02,3.72
		c0,0.32,1.04,0.64,1.46,0.64C316.64,64.36,317.88,63.3,318.38,62.36z"/>
	<path class="st1" d="M148.58,33.76l-0.06,0.3h5.12l-0.04-0.3l-0.8-0.08c-0.78-0.1-0.88-0.14-0.86-0.3l2.12-11.1
		c0.02-0.14,0.26-0.26,0.82-0.32l1-0.1l0.06-0.3h-5.1l0.02,0.3l0.82,0.08c0.78,0.1,0.86,0.14,0.84,0.3l-2.1,11.1
		c-0.02,0.14-0.26,0.26-0.84,0.32L148.58,33.76z"/>
	<path class="st1" d="M159.88,22.86l5.92,11.32h0.36l2.16-11.16c0.14-0.82,0.58-1.02,1.36-1.1l0.68-0.06l0.06-0.3h-4.3l0.04,0.3
		l0.66,0.06c0.98,0.08,1.22,0.28,1.08,1.06l-1.66,8.72h-0.06l-5.24-10.14h-3.36l0.04,0.3l0.54,0.1c0.86,0.14,1.16,0.46,1.3,0.88
		l-1.94,9.76c-0.14,0.82-0.54,1.02-1.32,1.1l-0.7,0.06l-0.06,0.3h4.3l-0.04-0.3l-0.64-0.06c-0.98-0.1-1.24-0.28-1.1-1.06l1.86-9.78
		H159.88z"/>
	<path class="st1" d="M169.48,33.76l-0.06,0.3h5l-0.02-0.3l-0.78-0.08c-0.8-0.1-0.88-0.14-0.86-0.3l1.06-5.5h6.46l-1.02,5.46
		c-0.02,0.14-0.26,0.26-0.82,0.32l-0.98,0.1l-0.06,0.3h5l-0.04-0.3l-0.7-0.08c-0.8-0.1-0.92-0.14-0.86-0.3l2.12-11.1
		c0.02-0.14,0.24-0.24,0.82-0.32l0.88-0.1l0.08-0.3h-4.98l0.02,0.3l0.78,0.08c0.78,0.1,0.9,0.14,0.84,0.3l-1,5.26h-6.46l0.98-5.22
		c0.02-0.14,0.26-0.26,0.82-0.32l0.96-0.1l0.08-0.3h-5l0.02,0.3l0.72,0.08c0.8,0.1,0.88,0.14,0.86,0.3l-2.1,11.1
		c-0.06,0.14-0.26,0.24-0.84,0.32L169.48,33.76z"/>
	<path class="st1" d="M191.06,23.14l0.64,5.34h-3.46l2.74-5.34H191.06z M186.66,31.56l1.36-2.66h3.74l0.46,3.74
		c0.08,0.66-0.2,1.02-0.82,1.06l-0.8,0.06l-0.06,0.3h5.02l-0.02-0.3l-0.76-0.08c-0.72-0.06-0.88-0.3-1.04-1.48l-1.46-10.88h-0.22
		c-0.2,0.3-0.94,0.68-1.3,0.78l0.08,0.6l-4.12,7.94c-1.54,2.72-1.66,2.88-2.68,3.04l-0.54,0.08l-0.06,0.3h4.3l-0.04-0.3l-0.72-0.08
		C185.58,33.58,185.72,33.24,186.66,31.56z"/>
	<path class="st1" d="M196.66,33.76l-0.06,0.3h9.08l1.22-3.9h-0.34l-0.4,0.92c-0.84,1.64-1.6,2.62-4.44,2.62l-1.82-0.06l2.16-11.36
		c0.02-0.14,0.24-0.26,0.82-0.32l1.3-0.1l0.06-0.3h-5.34l0.04,0.3l0.74,0.08c0.78,0.1,0.88,0.14,0.82,0.3l-2.1,11.1
		c-0.02,0.14-0.22,0.26-0.78,0.32L196.66,33.76z"/>
	<path class="st1" d="M207.98,33.76l-0.06,0.3h9.56l1.34-3.68l-0.34-0.02l-0.38,0.8c-0.84,1.42-1.7,2.56-4.7,2.56l-2.16-0.08
		l1.12-5.9l1.16,0.02c1.94,0.06,2.26,0.18,2.16,1.28l-0.04,0.56l0.28,0.02l0.88-4.04l-0.28-0.02l-0.28,0.58
		c-0.48,0.98-0.72,1.18-2.56,1.24l-1.26,0.02l1.04-5.5h1.68c2.66,0,3,0.76,3.54,2.4l0.1,0.82h0.32l-0.06-3.56h-8.8l0.02,0.3
		l0.74,0.08c0.78,0.1,0.88,0.14,0.86,0.3l-2.12,11.1c-0.02,0.16-0.3,0.26-0.84,0.32L207.98,33.76z"/>
	<path class="st1" d="M230.44,34.36c1.14,0,2.36-0.24,3.1-0.48l0.72,0.04l1.14-3.18l-0.32-0.02l-0.76,1.34
		c-1.1,1.2-2.22,1.94-3.84,1.94c-2.88,0-4.46-2-4.46-4.92c0-3.82,2.26-7.44,5.84-7.44c1.36,0,2.54,0.5,3.12,0.98l0.56,2.8l0.3,0.02
		l0.56-3.64l-1.22,0.32c-0.78-0.48-1.96-0.86-3.46-0.86c-4.26,0-7.36,3.54-7.36,7.52C224.36,32.02,226.68,34.36,230.44,34.36z"/>
	<path class="st1" d="M236.74,33.76l-0.06,0.3h9.56l1.34-3.68l-0.34-0.02l-0.38,0.8c-0.84,1.42-1.7,2.56-4.7,2.56L240,33.64
		l1.12-5.9l1.16,0.02c1.94,0.06,2.26,0.18,2.16,1.28l-0.04,0.56l0.28,0.02l0.88-4.04l-0.28-0.02L245,26.14
		c-0.48,0.98-0.72,1.18-2.56,1.24l-1.26,0.02l1.04-5.5h1.68c2.66,0,3,0.76,3.54,2.4l0.1,0.82h0.32l-0.06-3.56H239l0.02,0.3
		l0.74,0.08c0.78,0.1,0.88,0.14,0.86,0.3l-2.12,11.1c-0.02,0.16-0.3,0.26-0.84,0.32L236.74,33.76z"/>
	<path class="st1" d="M248.7,33.76l-0.06,0.3h9.08l1.22-3.9h-0.34l-0.4,0.92c-0.84,1.64-1.6,2.62-4.44,2.62l-1.82-0.06l2.16-11.36
		c0.02-0.14,0.24-0.26,0.82-0.32l1.3-0.1l0.06-0.3h-5.34l0.04,0.3l0.74,0.08c0.78,0.1,0.88,0.14,0.82,0.3l-2.1,11.1
		c-0.02,0.14-0.22,0.26-0.78,0.32L248.7,33.76z"/>
	<path class="st1" d="M260.02,33.76l-0.06,0.3h9.56l1.34-3.68l-0.34-0.02l-0.38,0.8c-0.84,1.42-1.7,2.56-4.7,2.56l-2.16-0.08
		l1.12-5.9l1.16,0.02c1.94,0.06,2.26,0.18,2.16,1.28l-0.04,0.56l0.28,0.02l0.88-4.04l-0.28-0.02l-0.28,0.58
		c-0.48,0.98-0.72,1.18-2.56,1.24l-1.26,0.02l1.04-5.5h1.68c2.66,0,3,0.76,3.54,2.4l0.1,0.82h0.32l-0.06-3.56h-8.8l0.02,0.3
		l0.74,0.08c0.78,0.1,0.88,0.14,0.86,0.3l-2.12,11.1c-0.02,0.16-0.3,0.26-0.84,0.32L260.02,33.76z"/>
	<path class="st1" d="M277.52,33.7h-0.78c-0.06,0-1.42-0.28-1.48-0.28l1.14-5.98h0.66c2.42,0,3.72,1.14,3.72,2.9
		C280.78,32.04,279.66,33.64,277.52,33.7z M277.98,27.12c-0.28,0-1.16-0.02-1.5-0.08l0.96-5.1h1.02c1.9,0,2.84,0.8,2.84,2.24
		C281.3,25.8,280.16,27.12,277.98,27.12z M271.98,33.76l-0.06,0.3h4.92c3.44,0,5.6-1.24,5.6-3.62c0-1.44-1.1-2.68-3.48-3.06
		l-0.02-0.06c2.78-0.22,4.04-1.46,4.04-3c0-1.5-1.3-2.76-4.02-2.76h-4.72l0.02,0.3l0.72,0.08c0.78,0.1,0.88,0.14,0.86,0.3
		l-2.12,11.1c-0.02,0.14-0.28,0.24-0.82,0.32L271.98,33.76z"/>
	<path class="st1" d="M283.58,33.76l-0.06,0.3h5.36l-0.04-0.3l-0.94-0.08c-0.38-0.06-0.88-0.14-0.86-0.3l1.12-5.8
		c0.3,0.16,1.2,0.28,1.52,0.38l2.64,6.1h2.98l-0.06-0.3l-0.44-0.06c-0.72-0.06-1.06-0.26-1.52-1.3l-2.06-4.44
		c2.18-0.26,3.94-1.54,3.94-3.48c0-1.68-1.52-2.92-4.08-2.92h-5.26l0.02,0.3l0.92,0.08c0.78,0.08,0.9,0.14,0.84,0.3l-2.1,11.1
		c-0.02,0.14-0.44,0.26-0.82,0.32L283.58,33.76z M290.3,27.62c-0.48,0-1.58-0.22-2.06-0.44l0.98-5.24l1.48-0.02
		c1.82-0.02,2.82,0.94,2.82,2.4C293.52,26.32,292.16,27.52,290.3,27.62z"/>
	<path class="st1" d="M302.82,23.14l0.64,5.34H300l2.74-5.34H302.82z M298.42,31.56l1.36-2.66h3.74l0.46,3.74
		c0.08,0.66-0.2,1.02-0.82,1.06l-0.8,0.06l-0.06,0.3h5.02l-0.02-0.3l-0.76-0.08c-0.72-0.06-0.88-0.3-1.04-1.48l-1.46-10.88h-0.22
		c-0.2,0.3-0.94,0.68-1.3,0.78l0.08,0.6l-4.12,7.94c-1.54,2.72-1.66,2.88-2.68,3.04l-0.54,0.08l-0.06,0.3h4.3l-0.04-0.3l-0.72-0.08
		C297.34,33.58,297.48,33.24,298.42,31.56z"/>
	<path class="st1" d="M309.66,33.76l-0.06,0.3h5.5l-0.04-0.3l-1-0.08c-0.78-0.08-0.88-0.14-0.86-0.3l2.2-11.48h1.02
		c1.94,0.06,2.5,0.64,2.72,2.28l0.08,0.84h0.28l0.4-3.46h-10.42L308.5,25h0.34l0.36-0.86c0.74-1.22,1.5-2.14,3.48-2.24h1.16
		l-2.16,11.44c-0.02,0.14-0.26,0.26-0.82,0.32L309.66,33.76z"/>
	<path class="st1" d="M319.9,33.76l-0.06,0.3h5.12l-0.04-0.3l-0.8-0.08c-0.78-0.1-0.88-0.14-0.86-0.3l2.12-11.1
		c0.02-0.14,0.26-0.26,0.82-0.32l1-0.1l0.06-0.3h-5.1l0.02,0.3l0.82,0.08c0.78,0.1,0.86,0.14,0.84,0.3l-2.1,11.1
		c-0.02,0.14-0.26,0.26-0.84,0.32L319.9,33.76z"/>
	<path class="st1" d="M333.94,34.34c3.8,0,6.82-3.18,6.82-7.08c0-3.28-2.32-5.98-5.84-5.98c-4.06,0-6.84,3.52-6.84,7.1
		C328.08,31.66,330.36,34.34,333.94,34.34z M333.92,33.96c-2.74,0-4.22-2.1-4.22-4.92c0-3.44,1.94-7.38,5.22-7.38
		c2.72,0,4.2,2.14,4.2,4.96C339.12,30.22,337.06,33.96,333.92,33.96z"/>
	<path class="st1" d="M345.82,22.86l5.92,11.32h0.36l2.16-11.16c0.14-0.82,0.58-1.02,1.36-1.1l0.68-0.06l0.06-0.3h-4.3l0.04,0.3
		l0.66,0.06c0.98,0.08,1.22,0.28,1.08,1.06l-1.66,8.72h-0.06l-5.24-10.14h-3.36l0.04,0.3l0.54,0.1c0.86,0.14,1.16,0.46,1.3,0.88
		l-1.94,9.76c-0.14,0.82-0.54,1.02-1.32,1.1l-0.7,0.06l-0.06,0.3h4.3l-0.04-0.3L345,33.7c-0.98-0.1-1.24-0.28-1.1-1.06l1.86-9.78
		H345.82z"/>
	<path class="st1" d="M356.32,34.32c0.62,0,1.06-0.5,1.06-1.08c0.02-0.54-0.44-1.04-1.06-1.04s-1.08,0.5-1.08,1.04
		C355.24,33.82,355.7,34.32,356.32,34.32z"/>
	<path class="st2" d="M129.52,112.25c1.39-0.15,1.93-0.44,1.93-0.73V87.17c0-0.36-0.26-0.47-2.23-0.66l-1.57-0.15l-0.15-0.66h12.05
		l-0.15,0.66l-1.9,0.18c-1.46,0.15-1.93,0.44-1.93,0.73v24.35c0,0.36,0.26,0.47,2.23,0.66l1.53,0.15l0.15,0.66h-12.05l0.15-0.66
		L129.52,112.25z"/>
	<path class="st2" d="M164.42,89.25l0.04,19.2c0,2.88,0.69,3.54,3.1,3.76l1.24,0.18l0.15,0.66h-9.46l0.15-0.66l1.24-0.18
		c1.83-0.22,2.7-0.8,2.7-3.87l0.15-18.87c-0.47-1.24-1.35-2.63-3.43-3.03l-1.02-0.18l-0.15-0.66h7.89l16.43,21.17l0.07-0.04
		l-0.04-16.5c0-2.88-0.69-3.54-3.1-3.76l-1.24-0.18l-0.15-0.66h9.46l-0.15,0.66l-1.24,0.18c-1.83,0.15-2.7,0.88-2.7,3.83
		l-0.07,22.96h-0.91l-18.87-24.09h-0.07V89.25z"/>
	<path class="st2" d="M208.7,112.25l-0.29-6.94h0.73l1.39,3.58c1.53,2.81,3.98,3.94,6.75,3.94c3.69,0,5.99-2.66,5.99-5.91
		c0-3.58-2.56-5-6.43-6.39c-4.34-1.53-7.67-3.5-7.67-7.96c0-3.58,2.99-7.48,8.76-7.48c2.41,0,4.16,0.36,5.77,0.84l1.79-0.58
		l0.11,7.63h-0.69l-2.37-5.48c-1.35-0.88-2.88-1.53-4.78-1.53c-3.03,0-5.11,2.15-5.11,4.78c0,3.36,2.77,4.71,6.24,5.99
		c4.86,1.75,8.14,3.8,8.14,8.51c0,4.09-3.83,8.43-10.04,8.43C214.36,113.74,211.22,113.09,208.7,112.25z"/>
	<path class="st2" d="M265.03,93.15c0-4.23-2.01-6.75-6.79-6.61h-2.99v12.67c1.02,0.29,1.72,0.44,3.43,0.44
		C262.55,99.61,265.03,97.2,265.03,93.15z M251.12,111.48V87.13c0-0.37-0.26-0.47-2.23-0.66l-1.75-0.15L247,85.67h12.12
		c7.05,0,10.37,2.7,10.37,6.75c0,4.89-4.56,7.99-10.73,7.99c-1.35,0-2.48-0.07-3.5-0.22v11.39
		C255.28,111.99,251.12,111.81,251.12,111.48z"/>
	<path class="st2" d="M291.72,112.25c1.39-0.15,1.93-0.44,1.93-0.73V87.17c0-0.36-0.26-0.47-2.23-0.66l-1.57-0.15l-0.15-0.66h12.05
		l-0.15,0.66l-1.9,0.18c-1.46,0.15-1.93,0.44-1.93,0.73v24.35c0,0.36,0.26,0.47,2.23,0.66l1.53,0.15l0.15,0.66h-12.05l0.15-0.66
		L291.72,112.25z"/>
	<path class="st2" d="M339.5,92.9c0-4.16-2.37-6.57-7.41-6.35c-0.15,0-0.62,0-1.13,0.04c-0.29,0.04-0.66,0.04-1.06,0.04v11.79
		c0.91,0.29,2.59,0.58,3.43,0.58C337.2,98.85,339.5,96.77,339.5,92.9z M323.84,112.25c0.91-0.15,1.93-0.44,1.93-0.73V87.17
		c0-0.36-0.26-0.47-2.23-0.66l-1.75-0.15l-0.15-0.66h11.65c7.19,0,10.7,2.56,10.7,7.08c0,3.36-2.7,6.06-6.61,6.97l5.95,9.05
		c1.79,2.59,2.63,3.21,4.56,3.47l0.8,0.15l0.18,0.66H341l-0.73-1.31l-7.19-11.86c-0.69-0.15-2.41-0.44-3.1-0.66v12.38
		c0,0.36,1.13,0.51,2.23,0.66l1.83,0.15l0.15,0.66h-12.52l0.15-0.66L323.84,112.25z"/>
	<path class="st2" d="M369,112.25c1.35-0.15,2.04-0.36,2.04-0.73V87.17c0-0.36-0.26-0.47-2.23-0.66l-1.31-0.15l-0.15-0.66h21.14
		l0.44,8.4h-0.84l-0.44-1.68c-1.28-3.87-2.15-5.95-8.94-5.95h-3.5v12.12l1.75-0.04c4.23-0.15,5.48-0.47,6.24-2.88l0.47-1.31
		l0.73,0.04l-0.91,9.31l-0.73-0.04l-0.15-1.28c-0.15-2.48-1.39-2.85-5.91-2.99l-1.5-0.04v12.7l4.13,0.15c6.97,0,8.32-2.81,9.71-6.17
		l0.51-1.61l0.88,0.04l-1.35,8.58h-21.76l0.15-0.66L369,112.25z"/>
	<g>
		<rect x="250.6" y="85.67" class="st2" width="4.97" height="529.24"/>
	</g>
</g>
</svg>
