<svg xmlns="http://www.w3.org/2000/svg" width="142.265" height="28.742" viewBox="0 0 142.265 28.742">
  <g id="JungleCuisine" transform="translate(-163.14 -149.6)">
    <g id="Group_35" data-name="Group 35" transform="translate(225.689 171.351)">
      <g id="Group_34" data-name="Group 34">
        <g id="Group_32" data-name="Group 32" transform="translate(12.612)">
          <path id="Path_242" data-name="Path 242" d="M675.25,265.03c0,.009-.294.017-.883.021-.234,0-.423,0-.57-.013s-.241-.008-.279-.008-.049.017-.043.049v.183c0,.042.013.062.038.062h.213a.326.326,0,0,1,.225.077.279.279,0,0,1,.06.16c0,.041,0,.094-.008.159a.852.852,0,0,1-.06.234q-.218.617-.459,1.28c-.155.434-.366.981-.634,1.638h-.027c-.177-.542-.353-1.076-.53-1.6q-.3-.883-.464-1.529c-.1-.712-.536-.691-.536-.691-.759-.009-1.136-.017-1.131-.021a.045.045,0,0,0-.051.049v.172c0,.049.013.074.038.074h.179a.313.313,0,0,1,.3.238c.023.051.06.143.111.277s.106.3.166.478q.187.558.347.981.5,1.342,1.087,2.8a.867.867,0,0,0,.068.123.1.1,0,0,0,.092.057.18.18,0,0,0,.16-.123c.036-.068.106-.211.208-.43s.2-.481.319-.768c.257-.621.44-1.063.549-1.321q.2-.473.425-1.017c.109-.281.219-.529.327-.746l.187-.317a.583.583,0,0,1,.051-.06c.053-.047.1-.085.14-.115a.643.643,0,0,1,.23-.057h.16c.032,0,.047-.017.047-.049v-.183Q675.295,265.03,675.25,265.03Z" transform="translate(-649.584 -264.994)" fill="#fff"/>
          <path id="Path_243" data-name="Path 243" d="M821.1,269.66l0,0-.345-.479-.381-.538a.146.146,0,0,0-.025-.025l-.727-1.012,1.478-2.074,0,0,.208-.293a.129.129,0,0,0-.106-.2h-.63c-.074-.006-.138.291-.138.366a.756.756,0,0,1-.015.126l-1.134,1.591-.793-1.083-.019.013c0-.189,0-.36.006-.513s.081-.211.228-.208h.164c.032,0,.047-.017.047-.049v-.189a.05.05,0,0,0-.055-.057c-.053.009-.366.017-.938.021s-.891-.017-.929-.021-.055.013-.055.042v.2c0,.032.019.049.055.049h.174a.229.229,0,0,1,.174.049.233.233,0,0,1,.038.123c.009.5.015,1.023.021,1.574v2.4a1.266,1.266,0,0,1-.021.262c0,.081-.068.125-.191.13h-.213c-.034,0-.051.013-.051.042v.2a.045.045,0,0,0,.051.049c.019-.009.33-.017.934-.021s.917.011.953.021a.044.044,0,0,0,.042-.049v-.2c0-.028-.017-.042-.055-.042h-.215q-.139,0-.158-.159-.02-.566-.021-1.512v-.755l1.776,2.467a.659.659,0,0,1,.013.123.129.129,0,0,0,.138.128h.815a.129.129,0,0,0,.106-.2Z" transform="translate(-768.693 -264.994)" fill="#fff"/>
          <path id="Path_244" data-name="Path 244" d="M621.9,268.637a.075.075,0,0,0-.089.021c-.07.087-.219.247-.444.481-.106.111-.206.211-.3.294a1.691,1.691,0,0,1-.238.183,1.3,1.3,0,0,1-.525.077H618.58q.3-.416,1.708-2.384.631-.892,1.1-1.557t.5-.727a.1.1,0,0,0,.021-.123.136.136,0,0,0-.119-.049c-.072,0-.242.007-.506.021s-.623.021-1.061.021c-.315,0-.67,0-1.062-.008s-.687-.017-.883-.036a1.031,1.031,0,0,0-.164-.013.12.12,0,0,0-.1.076l-.453,1.282c-.006.032,0,.055.021.062l.123.066c.032.009.062-.006.087-.045.1-.125.257-.3.466-.536l.27-.294a1.2,1.2,0,0,1,.183-.159,1.049,1.049,0,0,1,.234-.123,1.1,1.1,0,0,1,.164-.013h1.493c-.023.038-.179.266-.472.687s-.634.917-1.029,1.48q-1.3,1.877-1.689,2.457a.328.328,0,0,0-.034.143.046.046,0,0,0,.047.049.7.7,0,0,0,.085.008h1.625q1.24,0,2.114.081a1.593,1.593,0,0,0,.174.021.111.111,0,0,0,.092-.074c.042-.091.1-.223.168-.394l.128-.315c.045-.109.091-.211.134-.3a1.588,1.588,0,0,1,.094-.228c.019-.032.015-.055-.013-.066Z" transform="translate(-606.799 -264.84)" fill="#fff"/>
          <path id="Path_245" data-name="Path 245" d="M778.042,269.87H777.7c-.143,0-.219-.081-.228-.245q-.02-.716-.026-1.557v-.8h0c.009-.589.015-1.172.021-1.746,0-.125.093-.185.279-.185h.2c.036,0,.055-.017.055-.049V265.1c0-.042-.015-.062-.047-.062s-.379.017-1.029.021c-.34,0-.6,0-.778-.013l-.344-.008c-.032,0-.047.013-.047.042v.209c0,.028.019.041.055.041h.338c.143,0,.219.081.228.245.013.462.023.966.026,1.508-.01.6-.015,2.027-.021,2.6,0,.125-.092.185-.279.185h-.2c-.036,0-.055.017-.055.049v.181c0,.042.015.062.047.062s.379-.017,1.029-.021c.34,0,.6,0,.778.013l.343.008c.032,0,.047-.013.047-.042v-.209C778.1,269.885,778.08,269.87,778.042,269.87Z" transform="translate(-735.294 -265.002)" fill="#fff"/>
          <path id="Path_246" data-name="Path 246" d="M728.027,269.616a1.757,1.757,0,0,1,.047-.176c.019-.081.034-.16.047-.238q.133-.555.16-.651c.009-.04.006-.062-.013-.066l-.14-.057c-.036-.019-.064,0-.085.042a3.569,3.569,0,0,1-.366.659,2.241,2.241,0,0,1-.285.332.582.582,0,0,1-.3.172c-.362.028-.7.04-1.016.036h-.4c-.009-.2-.013-.551-.013-1.049s-.008-.8-.008-.912v-.617c.009-.766.015-1.327.021-1.68a.322.322,0,0,1,.042-.21.274.274,0,0,1,.2-.057h.326c.047,0,.072-.019.072-.057v-.168c0-.047-.017-.07-.064-.07-.013.009-.4.017-1.168.021-.31,0-.538,0-.683-.013s-.24-.008-.279-.008-.053.017-.047.049v.172c0,.049.011.074.047.074h.259a.207.207,0,0,1,.166.057.475.475,0,0,1,.043.2c.009.272.015.717.021,1.336v.4q-.014,1.41-.021,2.363a.179.179,0,0,1-.051.115.339.339,0,0,1-.247.062h-.217c-.036,0-.053.017-.047.053v.179c-.006.041.013.062.055.062s.391-.017,1.029-.021h1.587c.625,0,1.025.011,1.2.019l.287.187a.04.04,0,0,0,.057-.011l.155-.24a.04.04,0,0,0-.011-.057Z" transform="translate(-693.331 -264.848)" fill="#fff"/>
          <path id="Path_247" data-name="Path 247" d="M566.481,268.471a.05.05,0,0,0-.053-.023l-.085.034-.674.26c-.091-.266-.177-.508-.259-.723q-.5-1.342-1.087-2.8a.9.9,0,0,0-.068-.123.1.1,0,0,0-.092-.057.181.181,0,0,0-.161.123c-.036.068-.106.211-.208.43s-.2.479-.319.768c-.257.621-.44,1.063-.549,1.321q-.2.473-.425,1.017c-.109.281-.219.528-.326.746l-.187.317a.579.579,0,0,1-.051.06c-.053.047-.1.085-.14.115a.643.643,0,0,1-.23.057h-.16c-.032,0-.047.017-.047.049v.181c0,.042.015.062.047.062,0-.009.294-.017.883-.021.234,0,.423,0,.57.013s.242.008.279.008.049-.017.043-.049v-.183c0-.042-.013-.062-.038-.062h-.213a.335.335,0,0,1-.225-.077.279.279,0,0,1-.06-.16c0-.042,0-.094.008-.159a.855.855,0,0,1,.06-.234q.218-.617.459-1.28c.155-.434.366-.981.634-1.638h.026c.177.542.353,1.076.53,1.6q.3.883.464,1.529c.1.712.536.691.536.691.759.009,1.134.017,1.13.021a.045.045,0,0,0,.051-.049v-.172c0-.049-.013-.074-.038-.074h-.179a.313.313,0,0,1-.3-.238c-.023-.051-.06-.143-.111-.277s-.083-.236-.138-.394l.84-.33a.031.031,0,0,0,.01-.047Zm-.7.587Z" transform="translate(-561.36 -265.002)" fill="#fff"/>
        </g>
        <g id="Group_33" data-name="Group 33" transform="translate(0 0.759)">
          <path id="Path_248" data-name="Path 248" d="M494.714,269.379l-.174-.066.006-.087,1.363-.366v2.1l.034.013a1.208,1.208,0,0,1,2.221.851,1.639,1.639,0,0,1-1.689,1.65,2.724,2.724,0,0,1-.938-.2h-.008l-.519.253h-.06v-3.7C494.953,269.5,494.908,269.432,494.714,269.379Zm2.408,2.712c0-.685-.287-1.165-.73-1.165a.744.744,0,0,0-.479.187v1.676c.213.327.453.545.659.545C496.909,273.335,497.122,272.81,497.122,272.091Z" transform="translate(-494.54 -268.86)" fill="#fff"/>
          <path id="Path_249" data-name="Path 249" d="M515.537,281.5a.427.427,0,0,1,.432-.432.46.46,0,0,1,.472.411c.166-.047.24-.166.366-.506l.213-.579h-.113l-1.165-2.614c-.106-.232-.166-.279-.359-.313l-.113-.026-.021-.113h1.869l-.019.113-.147.026c-.232.034-.272.1-.187.279l.651,1.568.406-1.123c.192-.551.145-.659-.206-.712l-.14-.04-.021-.113h1.231l-.021.113-.147.026c-.245.021-.306.126-.532.738l-.73,1.948-.326.938c-.206.612-.479.87-.878.87A.476.476,0,0,1,515.537,281.5Z" transform="translate(-511.341 -275.731)" fill="#fff"/>
        </g>
      </g>
    </g>
    <g id="Group_36" data-name="Group 36" transform="translate(163.14 149.6)">
      <path id="Path_250" data-name="Path 250" d="M170.193,151.044a.056.056,0,0,0-.017,0c-.874.043-1.582.062-2.369.062-.84,0-1.51-.019-2.784-.062a.055.055,0,0,0-.017,0,.369.369,0,0,0-.134.3.3.3,0,0,0,.091.279.03.03,0,0,0,.017.006l.519.042c1.191.1,1.4.3,1.4,2.625v7.857c0,.685-.026,4.158-.536,5.2a.851.851,0,0,1-.8.521,3.155,3.155,0,0,1-.863-.143,2.623,2.623,0,0,0-.78-.126c-.447,0-.783.6-.783.991,0,.215.16.472.929.472a4.54,4.54,0,0,0,4.128-3.014,11.891,11.891,0,0,0,.481-4.047V154.3c0-2.216.04-2.463,1.238-2.625l.311-.042a.025.025,0,0,0,.015-.006.309.309,0,0,0,.089-.281C170.322,151.233,170.282,151.089,170.193,151.044Z" transform="translate(-163.14 -150.768)" fill="#fff"/>
      <path id="Path_251" data-name="Path 251" d="M220.419,175.928a.038.038,0,0,0-.021-.006c-.647.04-1.114.062-1.723.062-.625,0-1.112-.023-1.744-.062a.038.038,0,0,0-.021.006.383.383,0,0,0-.047.576.034.034,0,0,0,.017.008l.436.062c.84.117.989.513.989,2.646v1.933c0,2.216-.94,3.437-2.646,3.437-1.795,0-2.667-1.131-2.667-3.458V178.2c0-1.433.081-1.487.948-1.629l.394-.062a.036.036,0,0,0,.015-.006.364.364,0,0,0,.108-.336.289.289,0,0,0-.157-.245.032.032,0,0,0-.013,0c-.853.043-1.485.062-2.118.062-.651,0-1.291-.019-2.014-.062a.042.042,0,0,0-.015,0,.281.281,0,0,0-.157.245.367.367,0,0,0,.108.336l.013.006.291.062c.859.185.949.2.949,1.629v3.326a3.972,3.972,0,0,0,.9,2.956,4.143,4.143,0,0,0,2.977.883,3.864,3.864,0,0,0,2.948-1.04,4.338,4.338,0,0,0,.953-3.048v-2.057c0-1.993.151-2.586.676-2.646l.623-.062a.06.06,0,0,0,.017-.006.382.382,0,0,0-.023-.578Z" transform="translate(-201.138 -170.952)" fill="#fff"/>
      <path id="Path_252" data-name="Path 252" d="M286.459,175.934a.038.038,0,0,0-.021-.006c-.647.04-1.114.062-1.723.062-.591,0-1.066-.021-1.848-.062a.038.038,0,0,0-.021.006.383.383,0,0,0-.047.576.04.04,0,0,0,.019.008l.666.062c.717.059.863.5.863,2.646v2.412c0,.421,0,.73-.085.791-.166-.132-.695-.689-1.165-1.183-.277-.293-.542-.568-.706-.734l-1.954-2.016a11.96,11.96,0,0,1-2.031-2.548.036.036,0,0,0-.036-.019,5.239,5.239,0,0,1-.825.062c-.444,0-1,0-1.786-.062a.028.028,0,0,0-.017,0,.293.293,0,0,0-.162.236.4.4,0,0,0,.111.344.038.038,0,0,0,.015.008l.311.062a2.409,2.409,0,0,1,.755.285c.406.3.423.589.423,1.261v3.72c0,1.993-.151,2.586-.676,2.646l-.623.062a.03.03,0,0,0-.017.006.363.363,0,0,0-.119.323.3.3,0,0,0,.145.257.056.056,0,0,0,.017,0c.717-.042,1.119-.062,1.723-.062s1.066.021,1.848.062a.038.038,0,0,0,.021-.006.375.375,0,0,0,.164-.3.32.32,0,0,0-.119-.276.067.067,0,0,0-.017-.008l-.666-.062c-.717-.059-.863-.5-.863-2.646V179.1a3.489,3.489,0,0,1,.04-.834c.276.236.808.768,1.584,1.585l3.16,3.367.7.755c.744.8,1.051,1.134,1.232,1.363a.04.04,0,0,0,.021.013.394.394,0,0,0,.093.009.439.439,0,0,0,.381-.215.048.048,0,0,0,0-.023,20.955,20.955,0,0,1-.062-2.4v-3.492c0-1.993.151-2.586.676-2.646l.623-.062a.03.03,0,0,0,.017-.006.382.382,0,0,0-.023-.578Z" transform="translate(-254.356 -170.959)" fill="#fff"/>
      <path id="Path_253" data-name="Path 253" d="M352.722,180.283a.038.038,0,0,0-.021-.006c-.461.038-1.136.062-1.765.062-.668,0-1.589-.025-2.348-.062a.033.033,0,0,0-.023.008.377.377,0,0,0-.142.311.334.334,0,0,0,.121.266.02.02,0,0,0,.013.006l.666.125c.927.164.927.285.927,1.214v.519c0,.8-.119,1-1.212,1a3.894,3.894,0,0,1-4.06-4.247c0-2.478,1.374-4.081,3.5-4.081a2.678,2.678,0,0,1,2.918,2.159s0,.006,0,.008a.343.343,0,0,0,.306.145.352.352,0,0,0,.294-.168.026.026,0,0,0,0-.021c-.125-1.1-.166-1.942-.187-2.346a.034.034,0,0,0-.028-.032c-.121-.025-.259-.055-.408-.089a10.763,10.763,0,0,0-2.384-.328,6.11,6.11,0,0,0-4.619,1.653,4.667,4.667,0,0,0-1.319,3.288,4.588,4.588,0,0,0,1.3,3.184,6.034,6.034,0,0,0,4.494,1.548,10.635,10.635,0,0,0,1.976-.23l.108-.021c.228-.042.434-.085.615-.123a3.714,3.714,0,0,1,.627-.1.033.033,0,0,0,.013,0,.174.174,0,0,0,.1-.145.222.222,0,0,0-.077-.21c-.264-.132-.313-.415-.313-.925v-.581c0-.9.091-.993.6-1.11l.374-.083a.03.03,0,0,0,.017-.009.363.363,0,0,0,.087-.3A.358.358,0,0,0,352.722,180.283Z" transform="translate(-309.02 -169.987)" fill="#fff"/>
      <path id="Path_254" data-name="Path 254" d="M415.1,182.62a.4.4,0,0,0-.372.085.031.031,0,0,0-.008.013c-.589,1.623-1.336,1.7-2.607,1.7-1.1,0-1.408-.155-1.574-.321a2.859,2.859,0,0,1-.219-1.41V178.22c0-1.4.089-1.423.949-1.629l.27-.062.013-.006a.364.364,0,0,0,.108-.336.289.289,0,0,0-.157-.245.037.037,0,0,0-.015,0c-.693.042-1.344.062-1.993.062-.632,0-1.266-.019-2.118-.062a.028.028,0,0,0-.013,0,.282.282,0,0,0-.157.245.367.367,0,0,0,.108.336.021.021,0,0,0,.015.006l.395.062c.868.142.948.194.948,1.629v4.656c0,1.433-.081,1.487-.948,1.629l-.395.062a.035.035,0,0,0-.015.006.364.364,0,0,0-.108.336.288.288,0,0,0,.157.245.032.032,0,0,0,.013,0c.853-.043,1.485-.062,2.118-.062h1.7c1.027,0,2.129.019,3.471.062h0a.036.036,0,0,0,.03-.017,7.757,7.757,0,0,0,.628-2.322.041.041,0,0,0,0-.015A.3.3,0,0,0,415.1,182.62Z" transform="translate(-361.143 -170.968)" fill="#fff"/>
      <path id="Path_255" data-name="Path 255" d="M557.687,160.324a.477.477,0,0,0-.359.051.03.03,0,0,0-.011.015A4.4,4.4,0,0,1,553,163.34c-3.671,0-6.138-2.708-6.138-6.742a6.421,6.421,0,0,1,1.738-4.749,5.752,5.752,0,0,1,4.109-1.536c2.365,0,3.786,1.012,4.228,3.007a.038.038,0,0,0,.011.019.469.469,0,0,0,.349.087.377.377,0,0,0,.264-.134.03.03,0,0,0,.006-.025c-.16-1.229-.268-2.548-.291-3.052a.037.037,0,0,0-.011-.025.033.033,0,0,0-.026-.008,1.383,1.383,0,0,1-.519-.07l-.049-.013a16.086,16.086,0,0,0-3.688-.5,9.037,9.037,0,0,0-5.634,1.774,6.929,6.929,0,0,0-2.633,5.536,6.766,6.766,0,0,0,2.967,5.745,9.034,9.034,0,0,0,5.2,1.4,12.333,12.333,0,0,0,3.3-.479,4.067,4.067,0,0,1,.721-.206.027.027,0,0,0,.021-.013,7.864,7.864,0,0,0,1-2.865.033.033,0,0,0,0-.023A.369.369,0,0,0,557.687,160.324Z" transform="translate(-472.7 -149.6)" fill="#fff"/>
      <path id="Path_256" data-name="Path 256" d="M633.139,175.928a.039.039,0,0,0-.021-.006c-.647.04-1.114.062-1.723.062s-1.112-.023-1.744-.062a.039.039,0,0,0-.021.006.383.383,0,0,0-.047.576.033.033,0,0,0,.017.008l.436.062c.84.117.989.513.989,2.646v1.933c0,2.216-.94,3.437-2.646,3.437-1.795,0-2.667-1.131-2.667-3.458V178.2c0-1.433.081-1.487.948-1.629l.394-.062a.036.036,0,0,0,.015-.006.363.363,0,0,0,.108-.336.289.289,0,0,0-.157-.245.032.032,0,0,0-.013,0c-.853.043-1.485.062-2.118.062-.651,0-1.291-.019-2.014-.062a.041.041,0,0,0-.015,0,.281.281,0,0,0-.157.245.367.367,0,0,0,.108.336l.013.006.291.062c.859.185.949.2.949,1.629v3.326a3.972,3.972,0,0,0,.9,2.956,4.142,4.142,0,0,0,2.976.883,3.864,3.864,0,0,0,2.948-1.04,4.339,4.339,0,0,0,.953-3.048v-2.057c0-1.993.151-2.586.676-2.646l.623-.062a.03.03,0,0,0,.017-.006.382.382,0,0,0-.022-.578Z" transform="translate(-535.961 -170.952)" fill="#fff"/>
      <path id="Path_257" data-name="Path 257" d="M692.793,176.581l.395-.062a.037.037,0,0,0,.015-.006.364.364,0,0,0,.107-.336.288.288,0,0,0-.157-.245.031.031,0,0,0-.013,0,34.493,34.493,0,0,1-4.237,0,.028.028,0,0,0-.013,0,.282.282,0,0,0-.157.245.367.367,0,0,0,.108.336.021.021,0,0,0,.015.006l.395.062c.868.142.947.194.947,1.629v4.656c0,1.433-.081,1.487-.947,1.629l-.395.062a.036.036,0,0,0-.015.006.363.363,0,0,0-.108.336.289.289,0,0,0,.157.245.032.032,0,0,0,.013,0c.853-.043,1.485-.062,2.118-.062s1.31.019,2.118.062h0a.024.024,0,0,0,.011,0,.282.282,0,0,0,.157-.245.367.367,0,0,0-.108-.336.021.021,0,0,0-.015-.006l-.394-.062c-.868-.142-.947-.194-.947-1.629V178.21C691.845,176.777,691.926,176.723,692.793,176.581Z" transform="translate(-589.528 -170.96)" fill="#fff"/>
      <path id="Path_258" data-name="Path 258" d="M730.111,179.056l-1.289-.664c-.714-.374-1.374-.829-1.374-1.612,0-1.017.851-1.378,1.65-1.378a1.956,1.956,0,0,1,1.9,1.761l.006.013a.381.381,0,0,0,.349.108.3.3,0,0,0,.253-.157.023.023,0,0,0,0-.011,5.285,5.285,0,0,0-.294-2.054.039.039,0,0,0-.026-.019c-.221-.04-.421-.085-.615-.128a5.709,5.709,0,0,0-1.323-.185c-2.035,0-3.3,1-3.3,2.612a2.994,2.994,0,0,0,1.869,2.525l.936.477c.993.506,1.436,1.1,1.436,1.923,0,.915-.64,1.461-1.712,1.461a2.89,2.89,0,0,1-2.439-2.2.072.072,0,0,0-.006-.013.377.377,0,0,0-.349-.138.309.309,0,0,0-.251.189.032.032,0,0,0,0,.013,4.494,4.494,0,0,0,.442,2.159.023.023,0,0,0,.009.009,4.233,4.233,0,0,0,2.41.651c2.08,0,3.424-1.049,3.424-2.674A3.014,3.014,0,0,0,730.111,179.056Z" transform="translate(-619.383 -169.987)" fill="#fff"/>
      <path id="Path_259" data-name="Path 259" d="M775.963,176.581l.394-.062a.036.036,0,0,0,.015-.006.364.364,0,0,0,.108-.336.289.289,0,0,0-.157-.245.032.032,0,0,0-.013,0,34.494,34.494,0,0,1-4.237,0,.032.032,0,0,0-.013,0,.281.281,0,0,0-.157.245.367.367,0,0,0,.107.336.021.021,0,0,0,.015.006l.395.062c.868.142.948.194.948,1.629v4.656c0,1.433-.081,1.487-.948,1.629l-.395.062a.036.036,0,0,0-.015.006.364.364,0,0,0-.107.336.288.288,0,0,0,.157.245.028.028,0,0,0,.013,0h0c.853-.043,1.485-.062,2.118-.062s1.31.019,2.118.062a.028.028,0,0,0,.013,0,.282.282,0,0,0,.157-.245.367.367,0,0,0-.108-.336.021.021,0,0,0-.015-.006l-.394-.062c-.868-.142-.948-.194-.948-1.629V178.21C775.015,176.777,775.1,176.723,775.963,176.581Z" transform="translate(-657 -170.96)" fill="#fff"/>
      <path id="Path_260" data-name="Path 260" d="M818.019,175.934a.039.039,0,0,0-.021-.006c-.647.04-1.113.062-1.723.062-.591,0-1.066-.021-1.848-.062a.038.038,0,0,0-.021.006.383.383,0,0,0-.047.576.04.04,0,0,0,.019.008l.666.062c.717.059.863.5.863,2.646v2.412c0,.421,0,.73-.085.791-.166-.132-.695-.689-1.165-1.183-.278-.293-.542-.568-.706-.734L812,178.5a11.915,11.915,0,0,1-2.031-2.548.036.036,0,0,0-.036-.019,5.236,5.236,0,0,1-.825.062c-.444,0-1,0-1.786-.062a.027.027,0,0,0-.017,0,.293.293,0,0,0-.162.236.4.4,0,0,0,.111.344.039.039,0,0,0,.015.008l.311.062a2.411,2.411,0,0,1,.755.285c.406.3.423.589.423,1.261v3.72c0,1.993-.151,2.586-.676,2.646l-.623.062a.031.031,0,0,0-.017.006.363.363,0,0,0-.119.323.3.3,0,0,0,.145.257.056.056,0,0,0,.017,0c.717-.042,1.119-.062,1.723-.062s1.066.021,1.848.062a.038.038,0,0,0,.021-.006.374.374,0,0,0,.164-.3.319.319,0,0,0-.119-.276.066.066,0,0,0-.017-.008l-.666-.062c-.717-.059-.863-.5-.863-2.646V179.1a3.483,3.483,0,0,1,.04-.834c.275.236.808.768,1.584,1.585l3.16,3.367.7.755c.744.8,1.051,1.134,1.232,1.363a.039.039,0,0,0,.021.013.393.393,0,0,0,.093.009.439.439,0,0,0,.381-.215.048.048,0,0,0,0-.023,20.93,20.93,0,0,1-.062-2.4v-3.492c0-1.993.151-2.586.676-2.646l.623-.062a.03.03,0,0,0,.017-.006.382.382,0,0,0-.023-.578Z" transform="translate(-685.587 -170.959)" fill="#fff"/>
      <path id="Path_261" data-name="Path 261" d="M467.31,182.633a.4.4,0,0,0-.372.085.03.03,0,0,0-.008.013c-.589,1.627-1.321,1.7-2.669,1.7-1.112,0-1.529-.068-1.719-.277a2.852,2.852,0,0,1-.221-1.474V177.32c0-.619,0-.63.713-.63h.915c.495,0,1.416,0,1.738.483a2.85,2.85,0,0,1,.37.987.038.038,0,0,0,.008.015.392.392,0,0,0,.34.106.323.323,0,0,0,.259-.155.034.034,0,0,0,0-.019c-.1-.887-.208-1.869-.228-2.12a.032.032,0,0,0-.013-.025.037.037,0,0,0-.028-.006,17.138,17.138,0,0,1-1.925.062h-2.952c-.681,0-1.331-.021-1.931-.062a.034.034,0,0,0-.019,0,.349.349,0,0,0-.159.31.294.294,0,0,0,.115.272s.006,0,.009,0l.291.062c.774.162.846.219.846,1.629v4.656c0,1.463-.108,1.531-.946,1.629l-.56.062a.031.031,0,0,0-.017.006.364.364,0,0,0-.107.336.289.289,0,0,0,.157.245.032.032,0,0,0,.013,0c.97-.04,1.625-.062,2.306-.062h1.829c1.083,0,2.174.019,3.533.062h0a.036.036,0,0,0,.03-.017,7.752,7.752,0,0,0,.629-2.322.04.04,0,0,0,0-.015A.3.3,0,0,0,467.31,182.633Z" transform="translate(-403.19 -170.982)" fill="#fff"/>
      <path id="Path_262" data-name="Path 262" d="M484.858,190.518a.423.423,0,0,0-.349-.179.365.365,0,0,0-.315.134.1.1,0,0,0-.013.028l-.106.4c-.164.619-.257.961-1.285.961a.088.088,0,0,0-.032.006c-.087.034-.134.085-.138.151-.006.1.1.164.128.181a.08.08,0,0,0,.042.011c1.029,0,1.119.342,1.285.961l.106.4a.078.078,0,0,0,.013.028.361.361,0,0,0,.3.134h.015a.423.423,0,0,0,.349-.179.086.086,0,0,0,.013-.053c-.042-.6-.042-.974-.042-1.491,0-.474,0-.849.042-1.45A.1.1,0,0,0,484.858,190.518Z" transform="translate(-422.319 -182.65)" fill="#fff"/>
      <path id="Path_263" data-name="Path 263" d="M880.336,182.806a.3.3,0,0,0-.226-.183.4.4,0,0,0-.372.085.03.03,0,0,0-.007.013c-.589,1.627-1.321,1.7-2.669,1.7-1.112,0-1.529-.068-1.719-.277a2.851,2.851,0,0,1-.221-1.474V177.31c0-.619,0-.63.714-.63h.915c.494,0,1.416,0,1.738.483a2.848,2.848,0,0,1,.37.987.039.039,0,0,0,.008.015.39.39,0,0,0,.34.106.322.322,0,0,0,.259-.155.034.034,0,0,0,0-.019c-.1-.887-.208-1.869-.228-2.12a.032.032,0,0,0-.013-.025.037.037,0,0,0-.028-.006,17.138,17.138,0,0,1-1.925.062h-2.952c-.681,0-1.331-.021-1.931-.062a.034.034,0,0,0-.019,0,.349.349,0,0,0-.158.31.294.294,0,0,0,.115.272s.006,0,.009,0l.291.062c.774.162.846.219.846,1.629v4.656c0,1.463-.108,1.531-.946,1.629l-.561.062a.03.03,0,0,0-.017.006.364.364,0,0,0-.108.336.288.288,0,0,0,.157.245.032.032,0,0,0,.013,0c.97-.04,1.625-.062,2.306-.062h1.829c1.083,0,2.174.019,3.533.062h0a.036.036,0,0,0,.03-.017,7.75,7.75,0,0,0,.628-2.322C880.338,182.815,880.338,182.812,880.336,182.806Z" transform="translate(-738.077 -170.974)" fill="#fff"/>
      <path id="Path_264" data-name="Path 264" d="M897.648,190.518a.422.422,0,0,0-.349-.179.363.363,0,0,0-.315.134.093.093,0,0,0-.013.028l-.106.4c-.164.619-.257.961-1.285.961a.088.088,0,0,0-.032.006c-.087.034-.134.085-.138.151-.006.1.1.164.128.181a.081.081,0,0,0,.042.011c1.029,0,1.119.342,1.285.961l.106.4a.076.076,0,0,0,.013.028.36.36,0,0,0,.3.134h.015a.422.422,0,0,0,.349-.179.086.086,0,0,0,.013-.053c-.042-.6-.042-.974-.042-1.491,0-.474,0-.849.042-1.45A.084.084,0,0,0,897.648,190.518Z" transform="translate(-757.198 -182.65)" fill="#fff"/>
    </g>
  </g>
</svg>
