<svg xmlns="http://www.w3.org/2000/svg" xmlns:xlink="http://www.w3.org/1999/xlink" width="73" height="73" viewBox="0 0 73 73">
  <defs>
    <filter id="Ellipse_2" x="0" y="0" width="73" height="73" filterUnits="userSpaceOnUse">
      <feOffset dy="3" input="SourceAlpha"/>
      <feGaussianBlur stdDeviation="3" result="blur"/>
      <feFlood flood-opacity="0.161"/>
      <feComposite operator="in" in2="blur"/>
      <feComposite in="SourceGraphic"/>
    </filter>
  </defs>
  <g id="Location" transform="translate(9 6)">
    <g transform="matrix(1, 0, 0, 1, -9, -6)" filter="url(#Ellipse_2)">
      <circle id="Ellipse_2-2" data-name="Ellipse 2" cx="27.5" cy="27.5" r="27.5" transform="translate(9 6)" fill="#6f83f3"/>
    </g>
    <g id="Location-2" data-name="Location" transform="translate(18.318 13.714)">
      <path id="Path_287" data-name="Path 287" d="M15.418,29.656a3.071,3.071,0,0,1-.438-.48Q11.267,22.5,7.575,15.8a8.814,8.814,0,0,1-1.121-5.411,8.861,8.861,0,0,1,5.1-7.31,8.745,8.745,0,0,1,9.114.608,8.8,8.8,0,0,1,3.991,6.382,8.888,8.888,0,0,1-1.078,5.71q-3.7,6.707-7.417,13.393a3.071,3.071,0,0,1-.438.48Zm.2-22.945a4.59,4.59,0,1,0,4.536,4.674A4.595,4.595,0,0,0,15.621,6.711Z" transform="translate(-6.391 -2.083)" fill="#fff"/>
    </g>
  </g>
</svg>
