<svg xmlns="http://www.w3.org/2000/svg" width="142.265" height="31.942" viewBox="0 0 142.265 31.942">
  <g id="AzulikUhMay" transform="translate(-112.74 -129.82)">
    <g id="Group_37" data-name="Group 37" transform="translate(112.74 129.82)">
      <path id="Path_265" data-name="Path 265" d="M459.764,130.39q0,.037-2.386.057c-.631,0-1.144-.013-1.542-.038s-.654-.018-.753-.018-.132.045-.12.133v.493c0,.113.033.17.1.17h.578a.9.9,0,0,1,.606.208.781.781,0,0,1,.165.436c0,.113-.007.256-.018.426a2.345,2.345,0,0,1-.165.634q-.587,1.668-1.239,3.459-.624,1.763-1.716,4.425H453.2q-.717-2.2-1.432-4.33-.807-2.387-1.257-4.132c-.258-1.923-1.45-1.866-1.45-1.866q-3.074-.037-3.057-.057a.12.12,0,0,0-.138.133v.464c0,.133.033.2.1.2h.486a.848.848,0,0,1,.807.644c.062.138.161.388.3.749q.2.569.449,1.289.5,1.506.936,2.654,1.341,3.628,2.937,7.572a1.91,1.91,0,0,0,.183.331.253.253,0,0,0,.248.152.478.478,0,0,0,.431-.331q.147-.275.559-1.165.377-.909.862-2.076,1.036-2.52,1.487-3.573.552-1.279,1.147-2.749.444-1.136.881-2.014l.508-.856c.047-.06.092-.115.135-.163.14-.127.266-.23.376-.313a1.745,1.745,0,0,1,.624-.151h.431a.116.116,0,0,0,.128-.133v-.493C459.893,130.448,459.849,130.39,459.764,130.39Z" transform="translate(-390.41 -130.295)" fill="#fff"/>
      <path id="Path_266" data-name="Path 266" d="M907.057,142.9l.01-.007-.934-1.3-1.032-1.455a.315.315,0,0,0-.065-.068l-1.966-2.732,4-5.607-.01-.007.561-.791a.348.348,0,0,0-.285-.549h-1.678a.125.125,0,0,0-.025,0c-.2-.015-.375.787-.375.989a1.986,1.986,0,0,1-.038.34l-3.063,4.3-2.144-2.925-.053.038q.01-.767.017-1.387.017-.577.619-.559h.446a.116.116,0,0,0,.128-.133v-.511a.132.132,0,0,0-.148-.151q-.215.037-2.537.057-2.36-.037-2.509-.057c-.1,0-.148.038-.148.113v.549c0,.088.048.133.146.133h.468a.61.61,0,0,1,.468.133.624.624,0,0,1,.1.331q.037,2.02.055,4.255v6.483a3.678,3.678,0,0,1-.055.711c-.012.221-.183.338-.513.351h-.576c-.092,0-.138.038-.138.113v.549c0,.088.047.133.14.133q.075-.037,2.527-.057,2.435.02,2.574.057a.121.121,0,0,0,.112-.133v-.549c0-.077-.048-.113-.147-.113H900.4c-.248,0-.391-.142-.428-.426q-.055-1.533-.055-4.089V136.9l4.8,6.669a2.049,2.049,0,0,1,.037.331.351.351,0,0,0,.375.348l.025,0h2.179a.348.348,0,0,0,.285-.549Z" transform="translate(-765.419 -130.295)" fill="#fff"/>
      <path id="Path_267" data-name="Path 267" d="M296.566,140.082a.2.2,0,0,0-.238.057q-.285.352-1.2,1.3c-.288.3-.556.569-.807.8a4.3,4.3,0,0,1-.643.493,3.514,3.514,0,0,1-1.418.208h-4.671q.814-1.129,4.615-6.444,1.706-2.407,2.962-4.209,1.239-1.81,1.349-1.963a.252.252,0,0,0,.055-.331.364.364,0,0,0-.321-.133c-.2,0-.651.02-1.367.058s-1.683.057-2.867.057q-1.279,0-2.872-.018t-2.387-.095a2.869,2.869,0,0,0-.446-.038.324.324,0,0,0-.275.2l-1.222,3.464c-.013.088.007.145.057.171l.331.18c.088.025.167-.015.236-.123q.407-.5,1.26-1.45c.271-.3.514-.563.729-.8a2.967,2.967,0,0,1,.493-.426,2.694,2.694,0,0,1,.634-.331,3.143,3.143,0,0,1,.446-.038h4.037q-.092.152-1.275,1.858t-2.779,4q-3.514,5.069-4.568,6.644a.878.878,0,0,0-.092.388c0,.077.043.12.128.133a1.391,1.391,0,0,0,.23.018h4.393q3.349,0,5.714.218a3.776,3.776,0,0,0,.468.057.306.306,0,0,0,.248-.2c.112-.243.263-.6.456-1.065l.348-.851q.187-.447.361-.822a3.969,3.969,0,0,1,.256-.616c.05-.088.038-.148-.037-.18Z" transform="translate(-255.755 -129.82)" fill="#fff"/>
      <path id="Path_268" data-name="Path 268" d="M775.79,143.45h-.911c-.386,0-.593-.221-.616-.663q-.055-1.933-.073-4.209v-2.171h0q.037-2.387.055-4.72,0-.5.753-.5h.543c.1,0,.146-.045.146-.133v-.493c0-.113-.043-.17-.128-.17q-.147.037-2.782.057-1.376,0-2.1-.038c-.5-.013-.811-.018-.927-.018-.085,0-.128.038-.128.113v.568c0,.077.048.113.148.113h.911c.386,0,.593.221.616.663q.052,1.875.072,4.074c-.023,1.612-.042,5.481-.055,7.025q0,.5-.752.5h-.543c-.1,0-.146.045-.146.133v.493c0,.113.043.17.128.17q.147-.037,2.782-.057,1.376,0,2.1.038c.5.013.811.018.927.018.085,0,.128-.038.128-.113v-.568C775.938,143.489,775.888,143.45,775.79,143.45Z" transform="translate(-660.262 -130.295)" fill="#fff"/>
      <path id="Path_269" data-name="Path 269" d="M621.888,142.712c.033-.153.073-.311.125-.476.048-.221.092-.436.128-.644.238-1,.383-1.585.431-1.763.025-.107.013-.168-.037-.18l-.376-.152c-.1-.05-.175-.013-.23.113a9.651,9.651,0,0,1-.992,1.781,5.912,5.912,0,0,1-.771.9,1.568,1.568,0,0,1-.807.464q-1.468.115-2.745.095H615.54q-.037-.814-.037-2.833-.017-2-.018-2.464v-1.668q.038-3.109.055-4.54a.886.886,0,0,1,.11-.569.741.741,0,0,1,.551-.151h.881c.128,0,.193-.05.193-.151v-.454q.02-.19-.175-.19-.055.037-3.158.057-1.259,0-1.845-.038c-.4-.013-.649-.018-.753-.018s-.142.045-.128.133v.464c-.013.133.03.2.128.2h.7a.563.563,0,0,1,.45.151,1.32,1.32,0,0,1,.12.549q.037,1.1.055,3.611v1.08q-.037,3.811-.055,6.388a.492.492,0,0,1-.138.313.914.914,0,0,1-.669.17h-.586c-.1,0-.141.047-.128.142v.483c-.013.113.037.17.146.17q.192-.037,2.782-.057H618.3q2.532.017,3.251.052l.776.5a.112.112,0,0,0,.155-.033l.42-.646a.113.113,0,0,0-.033-.155Z" transform="translate(-528.121 -129.828)" fill="#fff"/>
      <path id="Path_270" data-name="Path 270" d="M126.571,139.678a.13.13,0,0,0-.145-.06l-.23.09-1.82.7q-.372-1.081-.7-1.956-1.341-3.628-2.937-7.572a1.909,1.909,0,0,0-.183-.331.253.253,0,0,0-.248-.151.478.478,0,0,0-.431.331q-.147.275-.559,1.165-.377.909-.862,2.076-1.036,2.52-1.487,3.573-.552,1.279-1.147,2.749-.445,1.136-.881,2.014l-.508.856c-.047.06-.092.115-.135.163-.14.127-.266.231-.376.313a1.745,1.745,0,0,1-.624.152h-.431a.116.116,0,0,0-.128.133v.493c0,.113.043.17.128.17q0-.037,2.386-.057c.631,0,1.144.013,1.542.038s.654.018.752.018.132-.045.12-.133v-.493c0-.113-.033-.17-.1-.17h-.578a.9.9,0,0,1-.606-.208.782.782,0,0,1-.165-.436c0-.113.007-.256.018-.426a2.345,2.345,0,0,1,.165-.634q.587-1.668,1.239-3.459.624-1.763,1.716-4.425h.073q.717,2.2,1.432,4.33.807,2.387,1.257,4.132c.258,1.923,1.45,1.866,1.45,1.866q3.074.037,3.057.057a.12.12,0,0,0,.138-.133v-.464c0-.133-.033-.2-.1-.2h-.486a.848.848,0,0,1-.807-.644c-.062-.138-.161-.388-.3-.749-.125-.353-.225-.638-.373-1.064l2.272-.892a.079.079,0,0,0,.025-.125Zm-1.9,1.585Z" transform="translate(-112.74 -130.303)" fill="#fff"/>
    </g>
    <g id="Group_38" data-name="Group 38" transform="translate(140.169 155.716)">
      <path id="Path_271" data-name="Path 271" d="M283.022,286.915c-.366.073-.411.165-.411,1.83v1.628a1.948,1.948,0,0,1-2.2,2c-1.363,0-2.186-.659-2.186-2.049v-3.293c0-.083-.055-.11-.32-.146l-.375-.047-.027-.32h2.314l-.027.32-.375.047c-.246.027-.32.082-.32.165v3.073c0,1.3.686,1.738,1.638,1.738a1.427,1.427,0,0,0,1.518-1.583v-1.537c0-1.675-.027-1.756-.4-1.83l-.44-.073-.028-.32h2.1l-.027.32Z" transform="translate(-277.5 -286.329)" fill="#fff"/>
      <path id="Path_272" data-name="Path 272" d="M386.608,291.919l.375-.047c.246-.027.32-.063.32-.165v-2.2h-2.809v2.223c0,.082.063.118.32.146l.375.047.027.32H382.9l.027-.32.375-.047c.246-.027.32-.082.32-.165v-4.675c0-.083-.055-.11-.32-.146l-.375-.047-.027-.32h2.314l-.027.32-.375.047c-.246.027-.32.082-.32.165v2.068H387.3v-2.086c0-.1-.063-.118-.32-.146l-.375-.047-.027-.32H388.9l-.027.32-.375.047c-.246.027-.32.082-.32.165v4.675c0,.082.055.11.32.146l.375.047.027.32h-2.314Z" transform="translate(-365.353 -286.329)" fill="#fff"/>
      <path id="Path_273" data-name="Path 273" d="M567.776,291.927l.513-.063c.183-.027.228-.393.183-1.8l-.11-2.955H568.3l-1.775,4.958h-.44l-1.73-4.756h-.11l-.118,2.717c-.073,1.675-.063,1.811.11,1.838l.521.063.027.32H562.8l.027-.32.513-.063c.183-.027.275-.165.375-1.838l.118-2.251c.027-.521-.082-.751-.366-.824l-.549-.1-.028-.32h2.086l1.547,4.282h.047l1.5-4.282h2.021l-.028.32-.623.055a.256.256,0,0,0-.22.265l.11,2.89c.047,1.5.118,1.775.3,1.8l.513.063.027.32h-2.424Z" transform="translate(-515.303 -286.337)" fill="#fff"/>
      <path id="Path_274" data-name="Path 274" d="M677.161,290.96l.448-.073c.338-.073.311-.191.063-.952l-.228-.714H675.56l-.22.7c-.246.7-.283.906.018.961l.366.073.027.32H673.84l.027-.32.256-.063c.385-.1.5-.246,1.07-1.838l1.06-2.973v-.33l.824-.385,1.73,5.269a.326.326,0,0,0,.293.22l.494.1.027.32h-2.489Zm-.649-4.583-.824,2.461h1.638l-.759-2.461Z" transform="translate(-607.857 -285.37)" fill="#fff"/>
      <path id="Path_275" data-name="Path 275" d="M776.434,286.886a1.347,1.347,0,0,0-.851.678l-1.29,2.178v1.994c0,.082.063.118.32.146l.549.047.027.32h-2.672l.027-.32.558-.047c.246-.027.32-.082.32-.165V289.87l-1.647-2.617a.831.831,0,0,0-.484-.33L771,286.85l-.027-.32h2.342l-.027.32-.366.055c-.283.047-.246.283.165.971l.914,1.51h.047l1.024-1.8c.283-.44.238-.623-.082-.686l-.22-.047-.027-.32h1.848l-.027.32Z" transform="translate(-688.817 -286.337)" fill="#fff"/>
    </g>
  </g>
</svg>
